<?xml version="1.0" encoding="UTF-8"?>
<svg xmlns="http://www.w3.org/2000/svg" xmlns:xlink="http://www.w3.org/1999/xlink" width="202pt" height="60pt" viewBox="0 0 202 60" version="1.1">
<g id="surface1">
<path style="fill:none;stroke-width:0.3985;stroke-linecap:butt;stroke-linejoin:miter;stroke:rgb(0%,0%,0%);stroke-opacity:1;stroke-miterlimit:10;" d="M -38.932094 0.0006875 L 152.321812 0.0006875 " transform="matrix(1,0,0,-1,44.311,44.321)"/>
<path style=" stroke:none;fill-rule:nonzero;fill:rgb(0%,0%,0%);fill-opacity:1;" d="M 1.789063 44.320313 C 2.855469 44.519531 4.582031 45.117188 5.777344 45.816406 L 5.777344 42.828125 C 4.582031 43.523438 2.855469 44.121094 1.789063 44.320313 "/>
<path style=" stroke:none;fill-rule:nonzero;fill:rgb(0%,0%,0%);fill-opacity:1;" d="M 200.21875 44.320313 C 199.15625 44.121094 197.429688 43.523438 196.234375 42.828125 L 196.234375 45.816406 C 197.429688 45.117188 199.15625 44.519531 200.21875 44.320313 "/>
<path style="fill:none;stroke-width:0.3985;stroke-linecap:butt;stroke-linejoin:miter;stroke:rgb(0%,0%,0%);stroke-opacity:1;stroke-miterlimit:10;" d="M 0.0015 -10.589156 L 0.0015 38.938187 " transform="matrix(1,0,0,-1,44.311,44.321)"/>
<path style=" stroke:none;fill-rule:nonzero;fill:rgb(0%,0%,0%);fill-opacity:1;" d="M 44.3125 58.496094 C 44.511719 57.433594 45.109375 55.707031 45.804688 54.511719 L 42.816406 54.511719 C 43.515625 55.707031 44.113281 57.433594 44.3125 58.496094 "/>
<path style=" stroke:none;fill-rule:nonzero;fill:rgb(0%,0%,0%);fill-opacity:1;" d="M 44.3125 1.796875 C 44.113281 2.859375 43.515625 4.585938 42.816406 5.785156 L 45.804688 5.785156 C 45.109375 4.585938 44.511719 2.859375 44.3125 1.796875 "/>
<path style="fill:none;stroke-width:0.79701;stroke-linecap:butt;stroke-linejoin:miter;stroke:rgb(0%,0%,0%);stroke-opacity:1;stroke-miterlimit:10;" d="M 0.0015 28.348344 L 2.360875 30.356156 L 4.724156 32.141312 L 7.087437 33.707719 L 9.446812 35.067094 L 11.810094 36.231156 L 14.173375 37.207719 L 16.53275 38.004594 L 18.896031 38.637406 L 21.259312 39.110062 L 23.622594 39.438187 L 25.981969 39.625687 L 28.34525 39.688187 L 30.708531 39.629594 L 33.067906 39.465531 L 35.431187 39.199906 L 37.794469 38.848344 L 40.153844 38.418656 L 42.517125 37.918656 L 44.880406 37.356156 L 47.243687 36.750687 L 49.603062 36.10225 L 51.966344 35.422562 L 54.329625 34.72725 L 56.689 34.020219 " transform="matrix(1,0,0,-1,44.311,44.321)"/>
<path style=" stroke:none;fill-rule:nonzero;fill:rgb(0%,0%,100%);fill-opacity:1;" d="M 47.128906 15.972656 C 47.128906 14.417969 45.867188 13.15625 44.3125 13.15625 C 42.753906 13.15625 41.492188 14.417969 41.492188 15.972656 C 41.492188 17.527344 42.753906 18.789063 44.3125 18.789063 C 45.867188 18.789063 47.128906 17.527344 47.128906 15.972656 Z M 47.128906 15.972656 "/>
<path style=" stroke:none;fill-rule:nonzero;fill:rgb(0%,0%,100%);fill-opacity:1;" d="M 103.824219 10.304688 C 103.824219 8.746094 102.5625 7.484375 101.003906 7.484375 C 99.449219 7.484375 98.1875 8.746094 98.1875 10.304688 C 98.1875 11.859375 99.449219 13.121094 101.003906 13.121094 C 102.5625 13.121094 103.824219 11.859375 103.824219 10.304688 Z M 103.824219 10.304688 "/>
<path style=" stroke:none;fill-rule:nonzero;fill:rgb(100%,0%,0%);fill-opacity:1;" d="M 75.476563 4.632813 C 75.476563 3.078125 74.214844 1.816406 72.65625 1.816406 C 71.101563 1.816406 69.839844 3.078125 69.839844 4.632813 C 69.839844 6.1875 71.101563 7.449219 72.65625 7.449219 C 74.214844 7.449219 75.476563 6.1875 75.476563 4.632813 Z M 75.476563 4.632813 "/>
</g>
</svg>
