<?xml version="1.0" encoding="UTF-8"?>
<svg xmlns="http://www.w3.org/2000/svg" xmlns:xlink="http://www.w3.org/1999/xlink" width="91pt" height="90pt" viewBox="0 0 91 90" version="1.1">
<g id="surface1">
<path style="fill:none;stroke-width:0.3985;stroke-linecap:butt;stroke-linejoin:miter;stroke:rgb(0%,0%,0%);stroke-opacity:1;stroke-dasharray:0.3985,1.99255;stroke-miterlimit:10;" d="M -15.589671 -14.171452 L 72.284842 -14.171452 M -15.589671 -0.000427574 L 72.284842 -0.000427574 M -15.589671 14.174503 L 72.284842 14.174503 M -15.589671 28.345528 L 72.284842 28.345528 M -15.589671 42.520459 L 72.284842 42.520459 M -15.589671 56.695389 L 72.284842 56.695389 M -14.171773 -15.589336 L -14.171773 58.109367 M -0.00060657 -15.589336 L -0.00060657 58.109367 M 14.174466 -15.589336 L 14.174466 58.109367 M 28.345632 -15.589336 L 28.345632 58.109367 M 42.520705 -15.589336 L 42.520705 58.109367 M 56.691871 -15.589336 L 56.691871 58.109367 M 70.866944 -15.589336 L 70.866944 58.109367 " transform="matrix(1.00005,0,0,-1.00006,17.383419,59.913635)"/>
<path style="fill:none;stroke-width:0.3985;stroke-linecap:butt;stroke-linejoin:miter;stroke:rgb(0%,0%,0%);stroke-opacity:1;stroke-miterlimit:10;" d="M -0.00060657 -12.003614 L -0.00060657 54.523645 " transform="matrix(1.00005,0,0,-1.00006,17.383419,59.913635)"/>
<path style=" stroke:none;fill-rule:nonzero;fill:rgb(0%,0%,0%);fill-opacity:1;" d="M 17.382813 75.503906 C 17.582031 74.441406 18.179688 72.714844 18.878906 71.519531 L 15.890625 71.519531 C 16.585938 72.714844 17.183594 74.441406 17.382813 75.503906 "/>
<path style=" stroke:none;fill-rule:nonzero;fill:rgb(0%,0%,0%);fill-opacity:1;" d="M 17.382813 1.800781 C 17.183594 2.863281 16.585938 4.589844 15.890625 5.785156 L 18.878906 5.785156 C 18.179688 4.589844 17.582031 2.863281 17.382813 1.800781 "/>
<path style="fill:none;stroke-width:0.3985;stroke-linecap:butt;stroke-linejoin:miter;stroke:rgb(0%,0%,0%);stroke-opacity:1;stroke-miterlimit:10;" d="M -12.003913 -0.000427574 L 68.699083 -0.000427574 " transform="matrix(1.00005,0,0,-1.00006,17.383419,59.913635)"/>
<path style=" stroke:none;fill-rule:nonzero;fill:rgb(0%,0%,0%);fill-opacity:1;" d="M 1.792969 59.914063 C 2.855469 60.113281 4.582031 60.710938 5.777344 61.40625 L 5.777344 58.417969 C 4.582031 59.117188 2.855469 59.714844 1.792969 59.914063 "/>
<path style=" stroke:none;fill-rule:nonzero;fill:rgb(0%,0%,0%);fill-opacity:1;" d="M 89.671875 59.914063 C 88.609375 59.714844 86.882813 59.117188 85.6875 58.417969 L 85.6875 61.40625 C 86.882813 60.710938 88.609375 60.113281 89.671875 59.914063 "/>
<path style="fill:none;stroke-width:1.19553;stroke-linecap:butt;stroke-linejoin:miter;stroke:rgb(100%,0%,0%);stroke-opacity:1;stroke-dasharray:2.98883,2.98883;stroke-miterlimit:10;" d="M -14.171773 -0.000427574 L 8.29976 -0.000427574 " transform="matrix(1.00005,0,0,-1.00006,17.383419,59.913635)"/>
<path style="fill:none;stroke-width:1.19553;stroke-linecap:butt;stroke-linejoin:miter;stroke:rgb(100%,0%,0%);stroke-opacity:1;stroke-miterlimit:10;" d="M 8.29976 -0.000427574 L 48.391505 -0.000427574 " transform="matrix(1.00005,0,0,-1.00006,17.383419,59.913635)"/>
<path style="fill:none;stroke-width:1.19553;stroke-linecap:butt;stroke-linejoin:miter;stroke:rgb(100%,0%,0%);stroke-opacity:1;stroke-dasharray:2.98883,2.98883;stroke-miterlimit:10;" d="M 8.29976 -0.000427574 L 70.866944 -0.000427574 " transform="matrix(1.00005,0,0,-1.00006,17.383419,59.913635)"/>
<path style="fill-rule:nonzero;fill:rgb(100%,100%,100%);fill-opacity:1;stroke-width:1.19553;stroke-linecap:butt;stroke-linejoin:miter;stroke:rgb(100%,0%,0%);stroke-opacity:1;stroke-miterlimit:10;" d="M 9.795779 -0.000427574 C 9.795779 0.823742 9.127843 1.495576 8.29976 1.495576 C 7.475582 1.495576 6.807647 0.823742 6.807647 -0.000427574 C 6.807647 -0.824597 7.475582 -1.492526 8.29976 -1.492526 C 9.127843 -1.492526 9.795779 -0.824597 9.795779 -0.000427574 Z M 9.795779 -0.000427574 " transform="matrix(1.00005,0,0,-1.00006,17.383419,59.913635)"/>
<path style="fill-rule:nonzero;fill:rgb(100%,100%,100%);fill-opacity:1;stroke-width:1.19553;stroke-linecap:butt;stroke-linejoin:miter;stroke:rgb(100%,0%,0%);stroke-opacity:1;stroke-miterlimit:10;" d="M 49.883618 -0.000427574 C 49.883618 0.823742 49.215683 1.495576 48.391505 1.495576 C 47.567328 1.495576 46.895486 0.823742 46.895486 -0.000427574 C 46.895486 -0.824597 47.567328 -1.492526 48.391505 -1.492526 C 49.215683 -1.492526 49.883618 -0.824597 49.883618 -0.000427574 Z M 49.883618 -0.000427574 " transform="matrix(1.00005,0,0,-1.00006,17.383419,59.913635)"/>
<path style="fill:none;stroke-width:0.79701;stroke-linecap:butt;stroke-linejoin:miter;stroke:rgb(0%,0%,0%);stroke-opacity:1;stroke-miterlimit:10;" d="M -0.00060657 -28.346383 C -0.00060657 -28.346383 1.706339 -21.694438 2.362557 -19.292239 C 3.018774 -16.890039 4.069502 -13.210572 4.72572 -11.023204 C 5.378031 -8.839741 6.432666 -5.511816 7.084977 -3.543184 C 7.741194 -1.578458 8.791923 1.401832 9.44814 3.147821 C 10.104357 4.897716 11.155086 7.522559 11.811303 9.053717 C 12.46752 10.584875 13.518249 12.862082 14.174466 14.170597 C 14.826777 15.483018 15.877506 17.408684 16.533723 18.502369 C 17.18994 19.596053 18.240669 21.170177 18.896886 22.045125 C 19.553103 22.920072 20.603832 24.146561 21.260049 24.802772 C 21.91236 25.458982 22.966995 26.33393 23.619306 26.771404 C 24.275523 27.208877 25.326252 27.732283 25.982469 27.95102 C 26.638686 28.169757 27.689415 28.345528 28.345632 28.345528 C 29.00185 28.345528 30.052578 28.173663 30.708795 27.954926 C 31.361107 27.736189 32.415741 27.208877 33.068052 26.77531 C 33.72427 26.337836 34.774998 25.458982 35.431216 24.806678 C 36.087433 24.150467 37.138161 22.923978 37.794379 22.049031 C 38.450596 21.177989 39.501325 19.599959 40.153636 18.510181 C 40.809853 17.416496 41.860582 15.49083 42.516799 14.178409 C 43.173016 12.865988 44.223745 10.592687 44.879962 9.061529 C 45.536179 7.534277 46.586908 4.905528 47.243125 3.155633 C 47.895436 1.409644 48.950071 -1.56674 49.602382 -3.535372 C 50.258599 -5.500098 51.309328 -8.828023 51.965545 -11.011486 C 52.621762 -13.198854 53.672491 -16.874415 54.328708 -19.280521 C 54.984925 -21.68272 56.691871 -28.334665 56.691871 -28.334665 " transform="matrix(1.00005,0,0,-1.00006,17.383419,59.913635)"/>
</g>
</svg>
