<?xml version="1.0" encoding="UTF-8"?>
<svg xmlns="http://www.w3.org/2000/svg" xmlns:xlink="http://www.w3.org/1999/xlink" width="91pt" height="89pt" viewBox="0 0 91 89" version="1.1">
<g id="surface1">
<path style="fill:none;stroke-width:0.3985;stroke-linecap:butt;stroke-linejoin:miter;stroke:rgb(50%,50%,50%);stroke-opacity:1;stroke-dasharray:0.3985,1.99255;stroke-miterlimit:10;" d="M -15.589671 -14.174195 L 72.284842 -14.174195 M -15.589671 0.00116108 L 72.284842 0.00116108 M -15.589671 14.172611 L 72.284842 14.172611 M -15.589671 28.347967 L 72.284842 28.347967 M -15.589671 42.519417 L 72.284842 42.519417 M -15.589671 56.694773 L 72.284842 56.694773 M -14.171773 -15.592121 L -14.171773 58.112699 M -0.00060657 -15.592121 L -0.00060657 58.112699 M 14.174466 -15.592121 L 14.174466 58.112699 M 28.345632 -15.592121 L 28.345632 58.112699 M 42.520705 -15.592121 L 42.520705 58.112699 M 56.691871 -15.592121 L 56.691871 58.112699 M 70.866944 -15.592121 L 70.866944 58.112699 " transform="matrix(1.00005,0,0,-1.00003,17.383419,58.911317)"/>
<path style="fill:none;stroke-width:0.3985;stroke-linecap:butt;stroke-linejoin:miter;stroke:rgb(0%,0%,0%);stroke-opacity:1;stroke-miterlimit:10;" d="M -0.00060657 -15.592121 L -0.00060657 58.112699 " transform="matrix(1.00005,0,0,-1.00003,17.383419,58.911317)"/>
<path style="fill:none;stroke-width:0.3985;stroke-linecap:butt;stroke-linejoin:miter;stroke:rgb(0%,0%,0%);stroke-opacity:1;stroke-miterlimit:10;" d="M -15.589671 0.00116108 L 72.284842 0.00116108 " transform="matrix(1.00005,0,0,-1.00003,17.383419,58.911317)"/>
<path style="fill:none;stroke-width:1.19553;stroke-linecap:butt;stroke-linejoin:miter;stroke:rgb(100%,0%,0%);stroke-opacity:1;stroke-dasharray:2.98883,2.98883;stroke-miterlimit:10;" d="M -14.171773 0.00116108 L 8.29976 0.00116108 " transform="matrix(1.00005,0,0,-1.00003,17.383419,58.911317)"/>
<path style="fill:none;stroke-width:1.19553;stroke-linecap:butt;stroke-linejoin:miter;stroke:rgb(100%,0%,0%);stroke-opacity:1;stroke-miterlimit:10;" d="M 8.29976 0.00116108 L 48.391505 0.00116108 " transform="matrix(1.00005,0,0,-1.00003,17.383419,58.911317)"/>
<path style="fill:none;stroke-width:1.19553;stroke-linecap:butt;stroke-linejoin:miter;stroke:rgb(100%,0%,0%);stroke-opacity:1;stroke-dasharray:2.98883,2.98883;stroke-miterlimit:10;" d="M 8.29976 0.00116108 L 70.866944 0.00116108 " transform="matrix(1.00005,0,0,-1.00003,17.383419,58.911317)"/>
<path style="fill-rule:nonzero;fill:rgb(100%,100%,100%);fill-opacity:1;stroke-width:1.19553;stroke-linecap:butt;stroke-linejoin:miter;stroke:rgb(100%,0%,0%);stroke-opacity:1;stroke-miterlimit:10;" d="M 9.795779 0.00116108 C 9.795779 0.825355 9.127843 1.493304 8.29976 1.493304 C 7.475582 1.493304 6.807647 0.825355 6.807647 0.00116108 C 6.807647 -0.826939 7.475582 -1.494888 8.29976 -1.494888 C 9.127843 -1.494888 9.795779 -0.826939 9.795779 0.00116108 Z M 9.795779 0.00116108 " transform="matrix(1.00005,0,0,-1.00003,17.383419,58.911317)"/>
<path style="fill-rule:nonzero;fill:rgb(100%,100%,100%);fill-opacity:1;stroke-width:1.19553;stroke-linecap:butt;stroke-linejoin:miter;stroke:rgb(100%,0%,0%);stroke-opacity:1;stroke-miterlimit:10;" d="M 49.883618 0.00116108 C 49.883618 0.825355 49.215683 1.493304 48.391505 1.493304 C 47.567328 1.493304 46.895486 0.825355 46.895486 0.00116108 C 46.895486 -0.826939 47.567328 -1.494888 48.391505 -1.494888 C 49.215683 -1.494888 49.883618 -0.826939 49.883618 0.00116108 Z M 49.883618 0.00116108 " transform="matrix(1.00005,0,0,-1.00003,17.383419,58.911317)"/>
<path style="fill:none;stroke-width:1.19553;stroke-linecap:butt;stroke-linejoin:miter;stroke:rgb(0%,0%,0%);stroke-opacity:1;stroke-miterlimit:10;" d="M -0.00060657 -28.345645 C -0.00060657 -28.345645 1.706339 -21.697407 2.362557 -19.291229 C 3.018774 -16.888957 4.069502 -13.20938 4.72572 -11.025852 C 5.378031 -8.838417 6.432666 -5.510392 7.084977 -3.545608 C 7.741194 -1.576917 8.791923 1.399557 9.44814 3.149504 C 10.104357 4.895545 11.155086 7.524373 11.811303 9.055577 C 12.46752 10.582875 13.518249 12.86015 14.174466 14.172611 C 14.826777 15.481165 15.877506 17.410795 16.533723 18.504512 C 17.18994 19.594323 18.240669 21.172401 18.896886 22.047375 C 19.553103 22.918442 20.603832 24.144968 21.260049 24.801198 C 21.91236 25.457429 22.966995 26.332402 23.619306 26.769889 C 24.275523 27.207376 25.326252 27.734704 25.982469 27.953448 C 26.638686 28.172191 27.689415 28.347967 28.345632 28.347967 C 29.00185 28.347967 30.052578 28.172191 30.708795 27.953448 C 31.361107 27.734704 32.415741 27.211282 33.068052 26.773795 C 33.72427 26.336309 34.774998 25.461335 35.431216 24.805104 C 36.087433 24.148874 37.138161 22.926255 37.794379 22.051281 C 38.450596 21.176307 39.501325 19.602136 40.153636 18.508418 C 40.809853 17.414701 41.860582 15.488978 42.516799 14.180423 C 43.173016 12.867963 44.223745 10.590687 44.879962 9.063389 C 45.536179 7.532185 46.586908 4.903358 47.243125 3.157316 C 47.895436 1.411275 48.950071 -1.569104 49.602382 -3.533889 C 50.258599 -5.498674 51.309328 -8.826699 51.965545 -11.014133 C 52.621762 -13.197662 53.672491 -16.877239 54.328708 -19.279511 C 54.984925 -21.681782 56.691871 -28.333926 56.691871 -28.333926 " transform="matrix(1.00005,0,0,-1.00003,17.383419,58.911317)"/>
</g>
</svg>
