<?xml version="1.0" encoding="UTF-8"?>
<svg xmlns="http://www.w3.org/2000/svg" xmlns:xlink="http://www.w3.org/1999/xlink" width="202pt" height="173pt" viewBox="0 0 202 173" version="1.1">
<g id="surface1">
<path style="fill:none;stroke-width:0.3985;stroke-linecap:butt;stroke-linejoin:miter;stroke:rgb(0%,0%,0%);stroke-opacity:1;stroke-miterlimit:10;" d="M -38.932913 0.0009375 L 152.319243 0.0009375 " transform="matrix(1.00005,0,0,-1,44.313766,143.54)"/>
<path style=" stroke:none;fill-rule:nonzero;fill:rgb(0%,0%,0%);fill-opacity:1;" d="M 1.792969 143.539063 C 2.855469 143.738281 4.582031 144.335938 5.777344 145.035156 L 5.777344 142.046875 C 4.582031 142.742188 2.855469 143.339844 1.792969 143.539063 "/>
<path style=" stroke:none;fill-rule:nonzero;fill:rgb(0%,0%,0%);fill-opacity:1;" d="M 200.230469 143.539063 C 199.167969 143.339844 197.4375 142.742188 196.242188 142.046875 L 196.242188 145.035156 C 197.4375 144.335938 199.167969 143.738281 200.230469 143.539063 "/>
<path style="fill:none;stroke-width:0.3985;stroke-linecap:butt;stroke-linejoin:miter;stroke:rgb(0%,0%,0%);stroke-opacity:1;stroke-miterlimit:10;" d="M -0.00126549 -24.760781 L -0.00126549 138.157188 " transform="matrix(1.00005,0,0,-1,44.313766,143.54)"/>
<path style=" stroke:none;fill-rule:nonzero;fill:rgb(0%,0%,0%);fill-opacity:1;" d="M 44.3125 171.886719 C 44.511719 170.824219 45.109375 169.097656 45.808594 167.902344 L 42.820313 167.902344 C 43.515625 169.097656 44.113281 170.824219 44.3125 171.886719 "/>
<path style=" stroke:none;fill-rule:nonzero;fill:rgb(0%,0%,0%);fill-opacity:1;" d="M 44.3125 1.796875 C 44.113281 2.859375 43.515625 4.585938 42.820313 5.78125 L 45.808594 5.78125 C 45.109375 4.585938 44.511719 2.859375 44.3125 1.796875 "/>
<path style="fill:none;stroke-width:0.79701;stroke-linecap:butt;stroke-linejoin:miter;stroke:rgb(0%,0%,0%);stroke-opacity:1;stroke-dasharray:0.79701,1.99255;stroke-miterlimit:10;" d="M -28.347504 -17.010781 L -27.167876 -14.217812 L -25.984341 -11.514687 L -24.804713 -8.8975 L -23.625084 -6.36625 L -22.44155 -3.920937 L -21.261921 -1.55375 L -20.082293 0.731406 L -18.898758 2.934531 L -17.71913 5.063438 L -16.539501 7.110313 L -15.355967 9.082969 L -14.176338 10.981406 L -12.996709 12.801719 L -11.817081 14.555625 L -10.633546 16.235313 L -9.453918 17.844688 L -8.274289 19.38375 L -7.090755 20.856406 L -5.911126 22.262656 L -4.731498 23.606406 L -3.547963 24.879844 L -2.368335 26.094688 L -1.188706 27.250938 L -0.00517154 28.340781 " transform="matrix(1.00005,0,0,-1,44.313766,143.54)"/>
<path style="fill:none;stroke-width:0.79701;stroke-linecap:butt;stroke-linejoin:miter;stroke:rgb(0%,0%,0%);stroke-opacity:1;stroke-miterlimit:10;" d="M -0.00126549 28.348594 L 5.904689 32.950156 L 11.810644 36.231406 L 17.716599 38.340781 L 23.622553 39.438438 L 29.528508 39.672813 L 35.434463 39.200156 L 41.336511 38.172813 L 47.242466 36.747031 L 53.148421 35.075156 L 59.054375 33.313438 L 64.96033 31.610313 L 70.866285 30.122031 L 76.77224 29.000938 L 82.674288 28.407188 L 88.580243 28.485313 L 94.486198 29.399375 L 100.392152 31.293906 L 106.298107 34.325156 L 112.204062 38.653281 L 118.110016 44.422813 L 124.015971 51.793906 L 129.91802 60.915 L 135.823975 71.94625 L 141.729929 85.036094 " transform="matrix(1.00005,0,0,-1,44.313766,143.54)"/>
<path style="fill:none;stroke-width:0.79701;stroke-linecap:butt;stroke-linejoin:miter;stroke:rgb(0%,0%,0%);stroke-opacity:1;stroke-dasharray:0.79701,1.99255;stroke-miterlimit:10;" d="M 141.733835 85.043906 L 142.32365 86.473594 L 142.913464 87.922813 L 143.507184 89.395469 L 144.096998 90.891563 L 144.686813 92.411094 L 145.276627 93.950156 L 145.866441 95.516563 L 146.456255 97.1025 L 147.04607 98.715781 L 147.63979 100.348594 L 148.229604 102.00875 L 148.819418 103.688438 L 149.409233 105.395469 L 149.999047 107.125938 L 150.588861 108.879844 L 151.182582 110.657188 L 151.772396 112.461875 L 152.36221 114.29 L 152.952024 116.141563 L 153.541839 118.020469 L 154.131653 119.922813 L 154.721467 121.8525 L 155.315187 123.805625 L 155.905002 125.786094 " transform="matrix(1.00005,0,0,-1,44.313766,143.54)"/>
<path style=" stroke:none;fill-rule:nonzero;fill:rgb(0%,0%,0%);fill-opacity:1;" d="M 47.132813 115.191406 C 47.132813 113.636719 45.871094 112.375 44.3125 112.375 C 42.757813 112.375 41.496094 113.636719 41.496094 115.191406 C 41.496094 116.746094 42.757813 118.007813 44.3125 118.007813 C 45.871094 118.007813 47.132813 116.746094 47.132813 115.191406 Z M 47.132813 115.191406 "/>
<path style=" stroke:none;fill-rule:nonzero;fill:rgb(0%,0%,0%);fill-opacity:1;" d="M 188.875 58.496094 C 188.875 56.9375 187.613281 55.675781 186.054688 55.675781 C 184.5 55.675781 183.238281 56.9375 183.238281 58.496094 C 183.238281 60.050781 184.5 61.3125 186.054688 61.3125 C 187.613281 61.3125 188.875 60.050781 188.875 58.496094 Z M 188.875 58.496094 "/>
</g>
</svg>
