<?xml version="1.0" encoding="UTF-8"?>
<svg xmlns="http://www.w3.org/2000/svg" xmlns:xlink="http://www.w3.org/1999/xlink" width="173pt" height="146pt" viewBox="0 0 173 146" version="1.1">
<g id="surface1">
<path style="fill-rule:nonzero;fill:rgb(0%,100%,0%);fill-opacity:0.33;stroke-width:0.3985;stroke-linecap:butt;stroke-linejoin:miter;stroke:rgb(0%,0%,0%);stroke-opacity:0.33;stroke-miterlimit:10;" d="M 28.345725 0.00131437 L 28.345725 41.379989 L 30.708818 43.414942 L 33.07191 45.547541 L 35.435002 47.754352 L 37.794188 50.023656 L 40.15728 52.339831 L 42.520373 54.687252 L 44.879559 57.046391 L 47.242651 59.40553 L 49.605743 61.74514 L 51.968836 64.049597 L 54.328022 66.303278 L 56.691114 68.486653 L 59.054206 70.591912 L 61.417298 72.599523 L 63.776485 74.497771 L 66.139577 76.271031 L 68.502669 77.911492 L 70.865761 79.399625 L 73.224948 80.735428 L 75.58804 81.899375 L 77.951132 82.891463 L 80.314224 83.703882 L 82.67341 84.324913 L 85.036503 84.754558 L 85.040409 0.00131437 L 28.345725 0.00131437 " transform="matrix(1.00008,0,0,-1.0001,30.339507,115.391939)"/>
<path style="fill:none;stroke-width:0.3985;stroke-linecap:butt;stroke-linejoin:miter;stroke:rgb(0%,0%,0%);stroke-opacity:1;stroke-miterlimit:10;" d="M 28.345725 41.379989 L 28.345725 0.00131437 " transform="matrix(1.00008,0,0,-1.0001,30.339507,115.391939)"/>
<path style="fill:none;stroke-width:0.3985;stroke-linecap:butt;stroke-linejoin:miter;stroke:rgb(0%,0%,0%);stroke-opacity:1;stroke-miterlimit:10;" d="M 85.040409 84.754558 L 85.040409 0.00131437 " transform="matrix(1.00008,0,0,-1.0001,30.339507,115.391939)"/>
<path style="fill-rule:nonzero;fill:rgb(0%,0%,0%);fill-opacity:0.1;stroke-width:0.3985;stroke-linecap:butt;stroke-linejoin:miter;stroke:rgb(100%,100%,100%);stroke-opacity:0.1;stroke-miterlimit:10;" d="M -28.345052 0.00131437 L 141.735092 0.00131437 L 141.735092 -28.347413 L -28.345052 -28.347413 Z M -28.345052 0.00131437 " transform="matrix(1.00008,0,0,-1.0001,30.339507,115.391939)"/>
<path style="fill:none;stroke-width:0.3985;stroke-linecap:butt;stroke-linejoin:miter;stroke:rgb(0%,0%,0%);stroke-opacity:1;stroke-miterlimit:10;" d="M -28.345052 0.00131437 L 141.735092 0.00131437 " transform="matrix(1.00008,0,0,-1.0001,30.339507,115.391939)"/>
<path style="fill:none;stroke-width:0.3985;stroke-linecap:butt;stroke-linejoin:miter;stroke:rgb(0%,0%,0%);stroke-opacity:1;stroke-dasharray:2.98883,2.98883;stroke-miterlimit:10;" d="M -28.345052 -14.173049 L 141.735092 -14.173049 " transform="matrix(1.00008,0,0,-1.0001,30.339507,115.391939)"/>
<path style="fill:none;stroke-width:0.3985;stroke-linecap:butt;stroke-linejoin:miter;stroke:rgb(0%,0%,0%);stroke-opacity:1;stroke-miterlimit:10;" d="M -28.345052 -28.347413 L 141.735092 -28.347413 " transform="matrix(1.00008,0,0,-1.0001,30.339507,115.391939)"/>
<path style="fill-rule:nonzero;fill:rgb(0%,0%,100%);fill-opacity:0.33;stroke-width:0.3985;stroke-linecap:butt;stroke-linejoin:miter;stroke:rgb(100%,100%,100%);stroke-opacity:0.33;stroke-miterlimit:10;" d="M -28.345052 0.00131437 L -28.345052 41.379989 L -21.849478 36.36096 L -15.353904 32.404324 L -8.85833 29.720999 L -2.362755 28.447688 L 4.132819 28.646887 L 10.628393 30.318595 L 17.123967 33.365165 L 23.619541 37.630364 L 30.115115 42.895462 L 36.610689 48.879239 L 43.106263 55.277037 L 49.601837 61.741234 L 56.097411 67.947645 L 62.596892 73.560365 L 69.092466 78.294266 L 75.58804 81.899375 L 82.083614 84.188208 L 88.579188 85.03578 L 95.074762 84.40303 L 101.570336 82.321207 L 108.06591 78.899675 L 114.561484 74.318101 L 121.057058 68.814746 L 127.552633 62.674735 L 127.560444 91.01565 L 121.06487 97.151756 L 114.569296 102.659017 L 108.073722 107.24059 L 101.578148 110.666029 L 95.082574 112.747852 L 88.587 113.384507 L 82.091426 112.536936 L 75.591946 110.248102 L 69.096372 106.6469 L 62.600797 101.912998 L 56.105223 96.300278 L 49.609649 90.097773 L 43.114075 83.62967 L 36.618501 77.235778 L 30.122927 71.248096 L 23.627353 65.982997 L 17.131779 61.713893 L 10.636205 58.667323 L 4.140631 56.995615 L -2.354944 56.79251 L -8.850518 58.06582 L -15.349998 60.749146 L -21.845572 64.701876 L -28.341146 69.720905 L -28.345052 0.00131437 " transform="matrix(1.00008,0,0,-1.0001,30.339507,115.391939)"/>
<path style="fill:none;stroke-width:0.79701;stroke-linecap:butt;stroke-linejoin:miter;stroke:rgb(0%,0%,0%);stroke-opacity:1;stroke-miterlimit:10;" d="M -28.345052 69.724811 L -21.849478 64.705781 L -15.353904 60.753052 L -8.85833 58.06582 L -2.362755 56.79251 L 4.132819 56.995615 L 10.628393 58.663417 L 17.123967 61.709987 L 23.619541 65.979092 L 30.115115 71.24419 L 36.610689 77.227967 L 43.106263 83.621859 L 49.601837 90.089962 L 56.097411 96.292467 L 62.596892 101.909092 L 69.092466 106.642994 L 75.58804 110.248102 L 82.083614 112.53303 L 88.579188 113.384507 L 95.074762 112.747852 L 101.570336 110.666029 L 108.06591 107.244496 L 114.561484 102.662923 L 121.057058 97.159567 L 127.552633 91.023462 " transform="matrix(1.00008,0,0,-1.0001,30.339507,115.391939)"/>
<path style="fill:none;stroke-width:0.79701;stroke-linecap:butt;stroke-linejoin:miter;stroke:rgb(0%,0%,0%);stroke-opacity:1;stroke-miterlimit:10;" d="M -28.345052 41.379989 L -21.849478 36.36096 L -15.353904 32.404324 L -8.85833 29.720999 L -2.362755 28.447688 L 4.132819 28.646887 L 10.628393 30.318595 L 17.123967 33.365165 L 23.619541 37.630364 L 30.115115 42.895462 L 36.610689 48.879239 L 43.106263 55.277037 L 49.601837 61.741234 L 56.097411 67.947645 L 62.596892 73.560365 L 69.092466 78.294266 L 75.58804 81.899375 L 82.083614 84.188208 L 88.579188 85.03578 L 95.074762 84.40303 L 101.570336 82.321207 L 108.06591 78.899675 L 114.561484 74.318101 L 121.057058 68.814746 L 127.552633 62.674735 " transform="matrix(1.00008,0,0,-1.0001,30.339507,115.391939)"/>
</g>
</svg>
