<?xml version="1.0" encoding="UTF-8"?>
<svg xmlns="http://www.w3.org/2000/svg" xmlns:xlink="http://www.w3.org/1999/xlink" width="131pt" height="61pt" viewBox="0 0 131 61" version="1.1">
<g id="surface1">
<path style="fill:none;stroke-width:0.79701;stroke-linecap:butt;stroke-linejoin:miter;stroke:rgb(0%,0%,0%);stroke-opacity:1;stroke-miterlimit:10;" d="M -7.084812 28.348874 L -5.612156 28.372311 L -4.135594 28.45434 L -2.659031 28.594961 L -1.182469 28.805892 L 0.294094 29.09104 L 1.770656 29.45431 L 3.247219 29.903515 L 4.723781 30.446468 L 6.200344 31.087074 L 7.676906 31.833145 L 9.153469 32.688588 L 10.630031 33.661215 L 12.102688 34.754932 L 13.57925 35.981458 L 15.055813 37.340792 L 16.532375 38.840747 L 18.008938 40.493041 L 19.4855 42.293769 L 20.962063 44.258553 L 22.438625 46.387396 L 23.915188 48.688108 L 25.39175 51.168502 L 26.868313 53.832485 L 28.344875 56.683962 " transform="matrix(1,0,0,-1.00003,9.077,87.041131)"/>
<path style="fill:none;stroke-width:0.79701;stroke-linecap:butt;stroke-linejoin:miter;stroke:rgb(0%,0%,0%);stroke-opacity:1;stroke-miterlimit:10;" d="M 28.344875 56.691774 L 29.528469 59.008111 L 30.708156 61.218982 L 31.887844 63.336106 L 33.071438 65.351671 L 34.251125 67.273488 L 35.430813 69.093746 L 36.614406 70.81635 L 37.794094 72.437396 L 38.973781 73.964694 L 40.153469 75.390432 L 41.337063 76.718517 L 42.51675 77.948949 L 43.696438 79.081727 L 44.880031 80.116853 L 46.059719 81.050418 L 47.239406 81.886331 L 48.419094 82.62459 L 49.602688 83.265196 L 50.782375 83.808148 L 51.962063 84.249541 L 53.145656 84.597187 L 54.325344 84.843273 L 55.505031 84.991706 L 56.688625 85.03858 " transform="matrix(1,0,0,-1.00003,9.077,87.041131)"/>
<path style="fill:none;stroke-width:0.79701;stroke-linecap:butt;stroke-linejoin:miter;stroke:rgb(0%,0%,0%);stroke-opacity:1;stroke-miterlimit:10;" d="M 56.692531 85.03858 L 57.876125 84.991706 L 59.055813 84.843273 L 60.2355 84.597187 L 61.415188 84.253447 L 62.598781 83.812054 L 63.778469 83.269102 L 64.958156 82.628496 L 66.14175 81.894143 L 67.321438 81.058231 L 68.501125 80.120759 L 69.680813 79.08954 L 70.864406 77.956761 L 72.044094 76.726329 L 73.223781 75.398244 L 74.407375 73.972506 L 75.587063 72.449114 L 76.76675 70.824163 L 77.950344 69.101558 L 79.130031 67.285206 L 80.309719 65.363389 L 81.489406 63.347825 L 82.673 61.234607 L 83.852688 59.019829 L 85.032375 56.707399 " transform="matrix(1,0,0,-1.00003,9.077,87.041131)"/>
<path style="fill:none;stroke-width:0.79701;stroke-linecap:butt;stroke-linejoin:miter;stroke:rgb(0%,0%,0%);stroke-opacity:1;stroke-miterlimit:10;" d="M 85.040188 56.69568 L 86.51675 53.840297 L 87.993313 51.176315 L 89.469875 48.69592 L 90.946438 46.395208 L 92.423 44.266366 L 93.899563 42.301581 L 95.376125 40.500854 L 96.848781 38.852466 L 98.325344 37.348604 L 99.801906 35.98927 L 101.278469 34.762745 L 102.755031 33.669027 L 104.231594 32.6964 L 105.708156 31.837051 L 107.184719 31.094886 L 108.661281 30.45428 L 110.137844 29.911328 L 111.614406 29.462122 L 113.090969 29.098852 L 114.563625 28.813704 L 116.040188 28.602773 L 117.51675 28.462152 L 118.993313 28.380124 L 120.469875 28.356687 " transform="matrix(1,0,0,-1.00003,9.077,87.041131)"/>
<path style="fill-rule:nonzero;fill:rgb(0%,0%,0%);fill-opacity:1;stroke-width:0.3985;stroke-linecap:butt;stroke-linejoin:miter;stroke:rgb(0%,0%,0%);stroke-opacity:1;stroke-miterlimit:10;" d="M 30.340969 56.691774 C 30.340969 57.793304 29.446438 58.687808 28.344875 58.687808 C 27.247219 58.687808 26.352688 57.793304 26.352688 56.691774 C 26.352688 55.594151 27.247219 54.699646 28.344875 54.699646 C 29.446438 54.699646 30.340969 55.594151 30.340969 56.691774 Z M 30.340969 56.691774 " transform="matrix(1,0,0,-1.00003,9.077,87.041131)"/>
<path style="fill-rule:nonzero;fill:rgb(0%,0%,0%);fill-opacity:1;stroke-width:0.3985;stroke-linecap:butt;stroke-linejoin:miter;stroke:rgb(0%,0%,0%);stroke-opacity:1;stroke-miterlimit:10;" d="M 87.032375 56.691774 C 87.032375 57.793304 86.14175 58.687808 85.040188 58.687808 C 83.938625 58.687808 83.048 57.793304 83.048 56.691774 C 83.048 55.594151 83.938625 54.699646 85.040188 54.699646 C 86.14175 54.699646 87.032375 55.594151 87.032375 56.691774 Z M 87.032375 56.691774 " transform="matrix(1,0,0,-1.00003,9.077,87.041131)"/>
</g>
</svg>
