<?xml version="1.0" encoding="UTF-8"?>
<svg xmlns="http://www.w3.org/2000/svg" xmlns:xlink="http://www.w3.org/1999/xlink" width="202pt" height="173pt" viewBox="0 0 202 173" version="1.1">
<g id="surface1">
<path style="fill:none;stroke-width:0.3985;stroke-linecap:butt;stroke-linejoin:miter;stroke:rgb(0%,0%,0%);stroke-opacity:1;stroke-miterlimit:10;" d="M -38.932094 0.0009375 L 152.321812 0.0009375 " transform="matrix(1,0,0,-1,44.311,143.54)"/>
<path style=" stroke:none;fill-rule:nonzero;fill:rgb(0%,0%,0%);fill-opacity:1;" d="M 1.789063 143.539063 C 2.855469 143.738281 4.582031 144.335938 5.777344 145.035156 L 5.777344 142.046875 C 4.582031 142.742188 2.855469 143.339844 1.789063 143.539063 "/>
<path style=" stroke:none;fill-rule:nonzero;fill:rgb(0%,0%,0%);fill-opacity:1;" d="M 200.21875 143.539063 C 199.15625 143.339844 197.429688 142.742188 196.234375 142.046875 L 196.234375 145.035156 C 197.429688 144.335938 199.15625 143.738281 200.21875 143.539063 "/>
<path style="fill:none;stroke-width:0.3985;stroke-linecap:butt;stroke-linejoin:miter;stroke:rgb(0%,0%,0%);stroke-opacity:1;stroke-miterlimit:10;" d="M 0.0015 -24.760781 L 0.0015 138.157188 " transform="matrix(1,0,0,-1,44.311,143.54)"/>
<path style=" stroke:none;fill-rule:nonzero;fill:rgb(0%,0%,0%);fill-opacity:1;" d="M 44.3125 171.886719 C 44.511719 170.824219 45.109375 169.097656 45.804688 167.902344 L 42.816406 167.902344 C 43.515625 169.097656 44.113281 170.824219 44.3125 171.886719 "/>
<path style=" stroke:none;fill-rule:nonzero;fill:rgb(0%,0%,0%);fill-opacity:1;" d="M 44.3125 1.796875 C 44.113281 2.859375 43.515625 4.585938 42.816406 5.78125 L 45.804688 5.78125 C 45.109375 4.585938 44.511719 2.859375 44.3125 1.796875 "/>
<path style="fill:none;stroke-width:1.19553;stroke-linecap:butt;stroke-linejoin:miter;stroke:rgb(0%,0%,0%);stroke-opacity:1;stroke-miterlimit:10;" d="M 0.0015 28.348594 L 2.360875 30.356406 L 4.724156 32.141563 L 7.087437 33.707969 L 9.446812 35.067344 L 11.810094 36.231406 L 14.173375 37.207969 L 16.53275 38.004844 L 18.896031 38.637656 L 21.259312 39.110313 L 23.622594 39.438438 L 25.981969 39.625938 L 28.34525 39.688438 L 30.708531 39.629844 L 33.067906 39.465781 L 35.431187 39.200156 L 37.794469 38.848594 L 40.153844 38.418906 L 42.517125 37.915 L 44.880406 37.356406 L 47.243687 36.747031 L 49.603062 36.1025 L 51.966344 35.422813 L 54.329625 34.7275 L 56.689 34.020469 " transform="matrix(1,0,0,-1,44.311,143.54)"/>
<path style=" stroke:none;fill-rule:nonzero;fill:rgb(0%,0%,100%);fill-opacity:1;" d="M 47.128906 115.191406 C 47.128906 113.636719 45.867188 112.375 44.3125 112.375 C 42.753906 112.375 41.492188 113.636719 41.492188 115.191406 C 41.492188 116.746094 42.753906 118.007813 44.3125 118.007813 C 45.867188 118.007813 47.128906 116.746094 47.128906 115.191406 Z M 47.128906 115.191406 "/>
<path style=" stroke:none;fill-rule:nonzero;fill:rgb(0%,0%,100%);fill-opacity:1;" d="M 103.824219 109.523438 C 103.824219 107.964844 102.5625 106.703125 101.003906 106.703125 C 99.449219 106.703125 98.1875 107.964844 98.1875 109.523438 C 98.1875 111.078125 99.449219 112.339844 101.003906 112.339844 C 102.5625 112.339844 103.824219 111.078125 103.824219 109.523438 Z M 103.824219 109.523438 "/>
<path style=" stroke:none;fill-rule:nonzero;fill:rgb(100%,0%,0%);fill-opacity:1;" d="M 75.476563 103.851563 C 75.476563 102.296875 74.214844 101.035156 72.65625 101.035156 C 71.101563 101.035156 69.839844 102.296875 69.839844 103.851563 C 69.839844 105.410156 71.101563 106.671875 72.65625 106.671875 C 74.214844 106.671875 75.476563 105.410156 75.476563 103.851563 Z M 75.476563 103.851563 "/>
</g>
</svg>
