<?xml version="1.0" encoding="UTF-8"?>
<svg xmlns="http://www.w3.org/2000/svg" xmlns:xlink="http://www.w3.org/1999/xlink" width="202pt" height="174pt" viewBox="0 0 202 174" version="1.1">
<g id="surface1">
<path style="fill:none;stroke-width:0.3985;stroke-linecap:butt;stroke-linejoin:miter;stroke:rgb(0%,0%,0%);stroke-opacity:1;stroke-miterlimit:10;" d="M -38.932094 -0.00168612 L 152.321812 -0.00168612 " transform="matrix(1,0,0,-1.00006,44.311,129.560814)"/>
<path style=" stroke:none;fill-rule:nonzero;fill:rgb(0%,0%,0%);fill-opacity:1;" d="M 1.789063 129.5625 C 2.855469 129.761719 4.582031 130.359375 5.777344 131.054688 L 5.777344 128.066406 C 4.582031 128.765625 2.855469 129.363281 1.789063 129.5625 "/>
<path style=" stroke:none;fill-rule:nonzero;fill:rgb(0%,0%,0%);fill-opacity:1;" d="M 200.21875 129.5625 C 199.15625 129.363281 197.429688 128.765625 196.234375 128.066406 L 196.234375 131.054688 C 197.429688 130.359375 199.15625 129.761719 200.21875 129.5625 "/>
<path style="fill:none;stroke-width:0.3985;stroke-linecap:butt;stroke-linejoin:miter;stroke:rgb(0%,0%,0%);stroke-opacity:1;stroke-miterlimit:10;" d="M 0.0015 -38.932944 L 0.0015 123.967438 " transform="matrix(1,0,0,-1.00006,44.311,129.560814)"/>
<path style=" stroke:none;fill-rule:nonzero;fill:rgb(0%,0%,0%);fill-opacity:1;" d="M 44.3125 172.082031 C 44.511719 171.019531 45.109375 169.292969 45.804688 168.097656 L 42.816406 168.097656 C 43.515625 169.292969 44.113281 171.019531 44.3125 172.082031 "/>
<path style=" stroke:none;fill-rule:nonzero;fill:rgb(0%,0%,0%);fill-opacity:1;" d="M 44.3125 1.996094 C 44.113281 3.058594 43.515625 4.789063 42.816406 5.984375 L 45.804688 5.984375 C 45.109375 4.789063 44.511719 3.058594 44.3125 1.996094 "/>
<path style="fill:none;stroke-width:0.79701;stroke-linecap:butt;stroke-linejoin:miter;stroke:rgb(0%,0%,0%);stroke-opacity:1;stroke-miterlimit:10;" d="M -28.346156 -25.511874 L -21.260219 -2.325765 L -14.174281 16.477794 L -7.088344 31.289405 L 0.0015 42.5192 L 7.087437 50.55778 L 14.173375 55.803559 L 21.259312 58.662763 L 28.34525 59.525992 L 35.435094 58.795567 L 42.521031 56.869902 L 49.606969 54.143503 L 56.692906 51.022596 L 63.778844 47.897784 L 70.868687 45.175291 L 77.954625 43.249625 L 85.040562 42.5192 L 92.1265 43.38243 L 99.212437 46.237727 L 106.302281 51.487412 L 113.388219 59.525992 L 120.474156 70.751881 L 127.560094 85.567398 L 134.646031 104.370958 L 141.735875 127.557067 " transform="matrix(1,0,0,-1.00006,44.311,129.560814)"/>
</g>
</svg>
