<?xml version="1.0" encoding="UTF-8"?>
<svg xmlns="http://www.w3.org/2000/svg" xmlns:xlink="http://www.w3.org/1999/xlink" width="400pt" height="258pt" viewBox="0 0 400 258" version="1.1">
<g id="surface1">
<path style="fill:none;stroke-width:0.3985;stroke-linecap:butt;stroke-linejoin:miter;stroke:rgb(0%,0%,0%);stroke-opacity:1;stroke-miterlimit:10;" d="M -53.105604 0.000122058 L 336.574159 0.000122058 " transform="matrix(1.00008,0,0,-1.00002,58.488759,200.226685)"/>
<path style=" stroke:none;fill-rule:nonzero;fill:rgb(0%,0%,0%);fill-opacity:1;" d="M 1.789063 200.226563 C 2.851563 200.425781 4.582031 201.023438 5.777344 201.722656 L 5.777344 198.730469 C 4.582031 199.429688 2.851563 200.027344 1.789063 200.226563 "/>
<path style=" stroke:none;fill-rule:nonzero;fill:rgb(0%,0%,0%);fill-opacity:1;" d="M 398.675781 200.226563 C 397.613281 200.027344 395.886719 199.429688 394.691406 198.730469 L 394.691406 201.722656 C 395.886719 201.023438 397.613281 200.425781 398.675781 200.226563 "/>
<path style="fill:none;stroke-width:0.3985;stroke-linecap:butt;stroke-linejoin:miter;stroke:rgb(0%,0%,0%);stroke-opacity:1;stroke-miterlimit:10;" d="M -0.000477432 -53.108191 L -0.000477432 194.839975 " transform="matrix(1.00008,0,0,-1.00002,58.488759,200.226685)"/>
<path style=" stroke:none;fill-rule:nonzero;fill:rgb(0%,0%,0%);fill-opacity:1;" d="M 58.488281 256.921875 C 58.6875 255.859375 59.285156 254.132813 59.984375 252.9375 L 56.996094 252.9375 C 57.691406 254.132813 58.289063 255.859375 58.488281 256.921875 "/>
<path style=" stroke:none;fill-rule:nonzero;fill:rgb(0%,0%,0%);fill-opacity:1;" d="M 58.488281 1.796875 C 58.289063 2.859375 57.691406 4.585938 56.996094 5.78125 L 59.984375 5.78125 C 59.285156 4.585938 58.6875 2.859375 58.488281 1.796875 "/>
<path style="fill:none;stroke-width:0.79701;stroke-linecap:butt;stroke-linejoin:miter;stroke:rgb(0%,0%,0%);stroke-opacity:1;stroke-miterlimit:10;" d="M -28.345866 196.066513 L -25.549215 173.398998 L -22.748658 155.395452 L -19.9481 141.473855 L -17.151449 131.079532 L -14.350892 123.661711 L -11.554241 118.696967 L -8.753683 115.677496 L -5.957032 114.099403 L -3.156475 113.49004 L -0.355918 113.388479 L 2.440734 113.341605 L 5.241291 112.919739 L 8.037942 111.708825 L 10.838499 109.314342 L 13.639056 105.349578 L 16.435708 99.451258 L 19.236265 91.271734 L 22.032916 80.471169 L 24.833473 66.740975 L 27.634031 49.768658 L 30.430682 29.27688 L 33.231239 4.996116 L 36.02789 -23.327536 L 38.828448 -55.932353 " transform="matrix(1.00008,0,0,-1.00002,58.488759,200.226685)"/>
<path style="fill:none;stroke-width:0.79701;stroke-linecap:butt;stroke-linejoin:miter;stroke:rgb(0%,0%,0%);stroke-opacity:1;stroke-miterlimit:10;" d="M 301.834751 -46.014583 L 301.869904 -36.147592 L 301.901152 -26.268884 L 301.936305 -16.382363 L 301.967553 -6.488029 L 302.002706 3.418022 L 302.033954 13.316262 L 302.065201 23.230126 L 302.100355 33.151803 L 302.131602 43.065667 L 302.166755 53.006874 L 302.198003 62.94027 L 302.22925 72.889289 L 302.264404 82.830497 L 302.295651 92.791235 L 302.330805 102.751973 L 302.362052 112.720524 L 302.397206 122.704699 L 302.428453 132.681062 L 302.459701 142.67305 L 302.494854 152.668944 L 302.526102 162.67265 L 302.561255 172.676356 L 302.592503 182.699593 L 302.62375 192.726736 " transform="matrix(1.00008,0,0,-1.00002,58.488759,200.226685)"/>
</g>
</svg>
