<?xml version="1.0" encoding="UTF-8"?>
<svg xmlns="http://www.w3.org/2000/svg" xmlns:xlink="http://www.w3.org/1999/xlink" width="242pt" height="74pt" viewBox="0 0 242 74" version="1.1">
<g id="surface1">
<path style="fill:none;stroke-width:0.3985;stroke-linecap:butt;stroke-linejoin:miter;stroke:rgb(0%,0%,0%);stroke-opacity:1;stroke-dasharray:0.3985,1.99255;stroke-miterlimit:10;" d="M -42.518615 -38.533687 L -42.518615 24.360844 C -42.518615 26.563969 -40.737418 28.345219 -38.53436 28.345219 L 38.533641 28.345219 C 40.7367 28.345219 42.521803 26.563969 42.521803 24.360844 L 42.521803 -38.533687 C 42.521803 -40.736812 40.7367 -42.521969 38.533641 -42.521969 L -38.53436 -42.521969 C -40.737418 -42.521969 -42.518615 -40.736812 -42.518615 -38.533687 Z M -42.518615 -38.533687 " transform="matrix(1.00003,0,0,-1,44.312859,30.146)"/>
<path style="fill-rule:nonzero;fill:rgb(0%,0%,0%);fill-opacity:1;stroke-width:0.3985;stroke-linecap:butt;stroke-linejoin:miter;stroke:rgb(0%,0%,0%);stroke-opacity:1;stroke-miterlimit:10;" d="M -6.511883 14.173344 C -6.511883 15.274906 -7.402481 16.165531 -8.50401 16.165531 C -9.60554 16.165531 -10.496138 15.274906 -10.496138 14.173344 C -10.496138 13.071781 -9.60554 12.181156 -8.50401 12.181156 C -7.402481 12.181156 -6.511883 13.071781 -6.511883 14.173344 Z M -6.511883 14.173344 " transform="matrix(1.00003,0,0,-1,44.312859,30.146)"/>
<path style="fill-rule:nonzero;fill:rgb(0%,0%,0%);fill-opacity:1;stroke-width:0.3985;stroke-linecap:butt;stroke-linejoin:miter;stroke:rgb(0%,0%,0%);stroke-opacity:1;stroke-miterlimit:10;" d="M 10.49542 14.173344 C 10.49542 15.274906 9.604821 16.165531 8.503292 16.165531 C 7.401762 16.165531 6.511164 15.274906 6.511164 14.173344 C 6.511164 13.071781 7.401762 12.181156 8.503292 12.181156 C 9.604821 12.181156 10.49542 13.071781 10.49542 14.173344 Z M 10.49542 14.173344 " transform="matrix(1.00003,0,0,-1,44.312859,30.146)"/>
<path style="fill:none;stroke-width:0.79701;stroke-linecap:butt;stroke-linejoin:miter;stroke:rgb(0%,0%,0%);stroke-opacity:1;stroke-miterlimit:10;" d="M -28.347165 -28.346187 L -25.983955 -23.818844 L -23.620744 -19.686031 L -21.26144 -15.943844 L -18.89823 -12.600094 L -16.53502 -9.646969 L -14.175715 -7.088375 L -11.812505 -4.920406 L -9.449295 -3.150875 L -7.086084 -1.771969 L -4.72678 -0.787594 L -2.36357 -0.19775 L -0.000359319 0.00146875 L 2.358945 -0.19775 L 4.722155 -0.787594 L 7.085366 -1.771969 L 9.44467 -3.146969 L 11.80788 -4.920406 L 14.171091 -7.084469 L 16.534301 -9.643062 L 18.893605 -12.596187 L 21.256815 -15.939937 L 23.620026 -19.678219 L 25.97933 -23.811031 L 28.34254 -28.338375 " transform="matrix(1.00003,0,0,-1,44.312859,30.146)"/>
<path style="fill:none;stroke-width:0.3985;stroke-linecap:butt;stroke-linejoin:miter;stroke:rgb(0%,0%,0%);stroke-opacity:1;stroke-dasharray:0.3985,1.99255;stroke-miterlimit:10;" d="M 56.693252 -38.533687 L 56.693252 24.360844 C 56.693252 26.563969 58.478355 28.345219 60.677508 28.345219 L 115.070407 28.345219 C 117.273466 28.345219 119.054663 26.563969 119.054663 24.360844 L 119.054663 -38.533687 C 119.054663 -40.736812 117.273466 -42.521969 115.070407 -42.521969 L 60.677508 -42.521969 C 58.478355 -42.521969 56.693252 -40.736812 56.693252 -38.533687 Z M 56.693252 -38.533687 " transform="matrix(1.00003,0,0,-1,44.312859,30.146)"/>
<path style="fill-rule:nonzero;fill:rgb(0%,0%,0%);fill-opacity:1;stroke-width:0.3985;stroke-linecap:butt;stroke-linejoin:miter;stroke:rgb(0%,0%,0%);stroke-opacity:1;stroke-miterlimit:10;" d="M 84.196334 14.173344 C 84.196334 15.274906 83.305735 16.165531 82.204206 16.165531 C 81.106582 16.165531 80.212078 15.274906 80.212078 14.173344 C 80.212078 13.071781 81.106582 12.181156 82.204206 12.181156 C 83.305735 12.181156 84.196334 13.071781 84.196334 14.173344 Z M 84.196334 14.173344 " transform="matrix(1.00003,0,0,-1,44.312859,30.146)"/>
<path style="fill-rule:nonzero;fill:rgb(0%,0%,0%);fill-opacity:1;stroke-width:0.3985;stroke-linecap:butt;stroke-linejoin:miter;stroke:rgb(0%,0%,0%);stroke-opacity:1;stroke-miterlimit:10;" d="M 98.37169 14.173344 C 98.37169 15.274906 97.481091 16.165531 96.379562 16.165531 C 95.278032 16.165531 94.387434 15.274906 94.387434 14.173344 C 94.387434 13.071781 95.278032 12.181156 96.379562 12.181156 C 97.481091 12.181156 98.37169 13.071781 98.37169 14.173344 Z M 98.37169 14.173344 " transform="matrix(1.00003,0,0,-1,44.312859,30.146)"/>
<path style="fill:none;stroke-width:0.79701;stroke-linecap:butt;stroke-linejoin:miter;stroke:rgb(0%,0%,0%);stroke-opacity:1;stroke-miterlimit:10;" d="M 70.868608 -28.346187 L 72.04826 -26.033687 L 73.227913 -23.818844 L 74.407565 -21.705562 L 75.591123 -19.686031 L 76.770775 -17.768062 L 77.950427 -15.94775 L 79.133985 -14.225094 L 80.313638 -12.600094 L 81.49329 -11.076656 L 82.676848 -9.650875 L 83.8565 -8.318844 L 85.036152 -7.088375 L 86.21971 -5.959469 L 87.399362 -4.924312 L 88.579015 -3.990719 L 89.758667 -3.150875 L 90.942225 -2.412594 L 92.121877 -1.775875 L 93.301529 -1.232906 L 94.485087 -0.787594 L 95.664739 -0.443844 L 96.844392 -0.19775 L 98.02795 -0.0493125 L 99.207602 0.00146875 " transform="matrix(1.00003,0,0,-1,44.312859,30.146)"/>
<path style="fill:none;stroke-width:0.3985;stroke-linecap:butt;stroke-linejoin:miter;stroke:rgb(0%,0%,0%);stroke-opacity:1;stroke-dasharray:0.3985,1.99255;stroke-miterlimit:10;" d="M 133.230019 -38.533687 L 133.230019 24.360844 C 133.230019 26.563969 135.015121 28.345219 137.214274 28.345219 L 191.607174 28.345219 C 193.810233 28.345219 195.591429 26.563969 195.591429 24.360844 L 195.591429 -38.533687 C 195.591429 -40.736812 193.810233 -42.521969 191.607174 -42.521969 L 137.214274 -42.521969 C 135.015121 -42.521969 133.230019 -40.736812 133.230019 -38.533687 Z M 133.230019 -38.533687 " transform="matrix(1.00003,0,0,-1,44.312859,30.146)"/>
<path style="fill-rule:nonzero;fill:rgb(0%,0%,0%);fill-opacity:1;stroke-width:0.3985;stroke-linecap:butt;stroke-linejoin:miter;stroke:rgb(0%,0%,0%);stroke-opacity:1;stroke-miterlimit:10;" d="M 157.901154 14.173344 C 157.901154 15.274906 157.006649 16.165531 155.909026 16.165531 C 154.807496 16.165531 153.912992 15.274906 153.912992 14.173344 C 153.912992 13.071781 154.807496 12.181156 155.909026 12.181156 C 157.006649 12.181156 157.901154 13.071781 157.901154 14.173344 Z M 157.901154 14.173344 " transform="matrix(1.00003,0,0,-1,44.312859,30.146)"/>
<path style="fill-rule:nonzero;fill:rgb(0%,0%,0%);fill-opacity:1;stroke-width:0.3985;stroke-linecap:butt;stroke-linejoin:miter;stroke:rgb(0%,0%,0%);stroke-opacity:1;stroke-miterlimit:10;" d="M 172.072603 14.173344 C 172.072603 15.274906 171.182005 16.165531 170.080476 16.165531 C 168.978946 16.165531 168.088348 15.274906 168.088348 14.173344 C 168.088348 13.071781 168.978946 12.181156 170.080476 12.181156 C 171.182005 12.181156 172.072603 13.071781 172.072603 14.173344 Z M 172.072603 14.173344 " transform="matrix(1.00003,0,0,-1,44.312859,30.146)"/>
<path style="fill:none;stroke-width:0.79701;stroke-linecap:butt;stroke-linejoin:miter;stroke:rgb(0%,0%,0%);stroke-opacity:1;stroke-miterlimit:10;" d="M 153.073173 0.00146875 L 154.252826 -0.0493125 L 155.432478 -0.19775 L 156.616036 -0.443844 L 157.795688 -0.787594 L 158.97534 -1.229 L 160.158898 -1.771969 L 161.338551 -2.408687 L 162.518203 -3.146969 L 163.701761 -3.982906 L 164.881413 -4.920406 L 166.061065 -5.951656 L 167.240717 -7.084469 L 168.424275 -8.311031 L 169.603928 -9.639156 L 170.78358 -11.068844 L 171.967138 -12.592281 L 173.14679 -14.217281 L 174.326442 -15.936031 L 175.51 -17.756344 L 176.689652 -19.674312 L 177.869305 -21.693844 L 179.048957 -23.807125 L 180.232515 -26.021969 L 181.412167 -28.334469 " transform="matrix(1.00003,0,0,-1,44.312859,30.146)"/>
</g>
</svg>
