<?xml version="1.0" encoding="UTF-8"?>
<svg xmlns="http://www.w3.org/2000/svg" xmlns:xlink="http://www.w3.org/1999/xlink" width="91pt" height="89pt" viewBox="0 0 91 89" version="1.1">
<g id="surface1">
<path style="fill:none;stroke-width:0.3985;stroke-linecap:butt;stroke-linejoin:miter;stroke:rgb(50%,50%,50%);stroke-opacity:1;stroke-dasharray:0.3985,1.99255;stroke-miterlimit:10;" d="M -15.588992 -14.171493 L 72.284642 -14.171493 M -15.588992 -0.00075199 L 72.284642 -0.00075199 M -15.588992 14.173895 L 72.284642 14.173895 M -15.588992 28.348543 L 72.284642 28.348543 M -15.588992 42.519284 L 72.284642 42.519284 M -15.588992 56.693931 L 72.284642 56.693931 M -14.175014 -15.589349 L -14.175014 58.111787 M -0.000083605 -15.589349 L -0.000083605 58.111787 M 14.174847 -15.589349 L 14.174847 58.111787 M 28.345872 -15.589349 L 28.345872 58.111787 M 42.520803 -15.589349 L 42.520803 58.111787 M 56.691827 -15.589349 L 56.691827 58.111787 M 70.866758 -15.589349 L 70.866758 58.111787 " transform="matrix(1.00006,0,0,-1.00008,17.582115,59.112529)"/>
<path style="fill:none;stroke-width:0.79701;stroke-linecap:butt;stroke-linejoin:miter;stroke:rgb(0%,0%,0%);stroke-opacity:1;stroke-miterlimit:10;" d="M -0.000083605 -15.589349 L -0.000083605 58.111787 " transform="matrix(1.00006,0,0,-1.00008,17.582115,59.112529)"/>
<path style="fill:none;stroke-width:0.79701;stroke-linecap:butt;stroke-linejoin:miter;stroke:rgb(0%,0%,0%);stroke-opacity:1;stroke-miterlimit:10;" d="M -15.588992 -0.00075199 L 72.284642 -0.00075199 " transform="matrix(1.00006,0,0,-1.00008,17.582115,59.112529)"/>
<path style="fill:none;stroke-width:1.19553;stroke-linecap:butt;stroke-linejoin:miter;stroke:rgb(0%,0%,0%);stroke-opacity:1;stroke-miterlimit:10;" d="M -0.000083605 -28.346141 C -0.000083605 -28.346141 1.706845 -21.694329 2.363056 -19.292177 C 3.019266 -16.890026 4.069985 -13.210633 4.722289 -11.023308 C 5.3785 -8.839889 6.429218 -5.51203 7.085429 -3.543437 C 7.741639 -1.578751 8.792358 1.40148 9.448568 3.147434 C 10.104779 4.897294 11.155497 7.52599 11.811708 9.053211 C 12.464012 10.584339 13.518637 12.8615 14.170941 14.169989 C 14.827152 15.482384 15.87787 17.411917 16.534081 18.501674 C 17.190291 19.595337 18.241009 21.173335 18.89722 22.044359 C 19.553431 22.919289 20.604149 24.145754 21.26036 24.801951 C 21.912664 25.458149 22.967288 26.333079 23.619593 26.770544 C 24.275804 27.208009 25.326522 27.73531 25.982732 27.954043 C 26.638943 28.172775 27.689661 28.348543 28.345872 28.348543 C 29.002083 28.348543 30.052801 28.172775 30.709011 27.954043 C 31.361316 27.73531 32.412034 27.211915 33.068245 26.77445 C 33.724455 26.336985 34.775174 25.462055 35.431384 24.805857 C 36.087595 24.14966 37.138313 22.923195 37.794524 22.052171 C 38.450734 21.177241 39.501453 19.599243 40.153757 18.509486 C 40.809968 17.415823 41.860686 15.490196 42.516897 14.177801 C 43.173107 12.869312 44.223825 10.592151 44.880036 9.061023 C 45.536247 7.533801 46.586965 4.905106 47.243176 3.159151 C 47.89548 1.409291 48.950104 -1.567033 49.602409 -3.535625 C 50.25862 -5.500312 51.309338 -8.828171 51.965548 -11.01159 C 52.621759 -13.198915 53.672477 -16.874402 54.328688 -19.28046 C 54.984899 -21.682611 56.691827 -28.334423 56.691827 -28.334423 " transform="matrix(1.00006,0,0,-1.00008,17.582115,59.112529)"/>
</g>
</svg>
