<?xml version="1.0" encoding="UTF-8"?>
<svg xmlns="http://www.w3.org/2000/svg" xmlns:xlink="http://www.w3.org/1999/xlink" width="259pt" height="74pt" viewBox="0 0 259 74" version="1.1">
<g id="surface1">
<path style="fill:none;stroke-width:0.3985;stroke-linecap:butt;stroke-linejoin:miter;stroke:rgb(0%,0%,0%);stroke-opacity:1;stroke-dasharray:0.3985,1.99255;stroke-miterlimit:10;" d="M -42.522105 -38.533687 L -42.522105 24.360844 C -42.522105 26.563969 -40.737056 28.345219 -38.534063 28.345219 L 38.535532 28.345219 C 40.734619 28.345219 42.519668 26.563969 42.519668 24.360844 L 42.519668 -38.533687 C 42.519668 -40.736812 40.734619 -42.521969 38.535532 -42.521969 L -38.534063 -42.521969 C -40.737056 -42.521969 -42.522105 -40.736812 -42.522105 -38.533687 Z M -42.522105 -38.533687 " transform="matrix(1.00006,0,0,-1,44.313719,30.146)"/>
<path style="fill-rule:nonzero;fill:rgb(0%,0%,0%);fill-opacity:1;stroke-width:0.3985;stroke-linecap:butt;stroke-linejoin:miter;stroke:rgb(0%,0%,0%);stroke-opacity:1;stroke-miterlimit:10;" d="M -5.094663 5.669438 C -5.094663 6.771 -5.985235 7.661625 -7.086731 7.661625 C -8.188227 7.661625 -9.078799 6.771 -9.078799 5.669438 C -9.078799 4.567875 -8.188227 3.67725 -7.086731 3.67725 C -5.985235 3.67725 -5.094663 4.567875 -5.094663 5.669438 Z M -5.094663 5.669438 " transform="matrix(1.00006,0,0,-1,44.313719,30.146)"/>
<path style="fill-rule:nonzero;fill:rgb(0%,0%,0%);fill-opacity:1;stroke-width:0.3985;stroke-linecap:butt;stroke-linejoin:miter;stroke:rgb(0%,0%,0%);stroke-opacity:1;stroke-miterlimit:10;" d="M 9.080268 5.669438 C 9.080268 6.771 8.18579 7.661625 7.0882 7.661625 C 5.986703 7.661625 5.092226 6.771 5.092226 5.669438 C 5.092226 4.567875 5.986703 3.67725 7.0882 3.67725 C 8.18579 3.67725 9.080268 4.567875 9.080268 5.669438 Z M 9.080268 5.669438 " transform="matrix(1.00006,0,0,-1,44.313719,30.146)"/>
<path style="fill:none;stroke-width:0.79701;stroke-linecap:butt;stroke-linejoin:miter;stroke:rgb(0%,0%,0%);stroke-opacity:1;stroke-miterlimit:10;" d="M -28.347174 0.00146875 L -25.984035 -4.525875 L -23.620895 -8.662594 L -21.261662 -12.400875 L -18.898522 -15.748531 L -16.535383 -18.701656 L -14.176149 -21.26025 L -11.81301 -23.424312 L -9.44987 -25.19775 L -7.086731 -26.57275 L -4.727498 -27.561031 L -2.364358 -28.150875 L -0.00121859 -28.346187 L 2.361921 -28.150875 L 4.721154 -27.561031 L 7.084294 -26.576656 L 9.447433 -25.19775 L 11.810573 -23.428219 L 14.169806 -21.264156 L 16.532946 -18.705562 L 18.896085 -15.752437 L 21.255319 -12.404781 L 23.618458 -8.6665 L 25.981597 -4.533687 L 28.344737 -0.00634375 " transform="matrix(1.00006,0,0,-1,44.313719,30.146)"/>
<path style="fill:none;stroke-width:0.3985;stroke-linecap:butt;stroke-linejoin:miter;stroke:rgb(0%,0%,0%);stroke-opacity:1;stroke-dasharray:0.3985,1.99255;stroke-miterlimit:10;" d="M 56.694598 -38.533687 L 56.694598 24.360844 C 56.694598 26.563969 58.479648 28.345219 60.678734 28.345219 L 123.577304 28.345219 C 125.776391 28.345219 127.56144 26.563969 127.56144 24.360844 L 127.56144 -38.533687 C 127.56144 -40.736812 125.776391 -42.521969 123.577304 -42.521969 L 60.678734 -42.521969 C 58.479648 -42.521969 56.694598 -40.736812 56.694598 -38.533687 Z M 56.694598 -38.533687 " transform="matrix(1.00006,0,0,-1,44.313719,30.146)"/>
<path style="fill-rule:nonzero;fill:rgb(0%,0%,0%);fill-opacity:1;stroke-width:0.3985;stroke-linecap:butt;stroke-linejoin:miter;stroke:rgb(0%,0%,0%);stroke-opacity:1;stroke-miterlimit:10;" d="M 89.868389 5.669438 C 89.868389 6.771 88.973912 7.661625 87.876321 7.661625 C 86.774825 7.661625 85.884253 6.771 85.884253 5.669438 C 85.884253 4.567875 86.774825 3.67725 87.876321 3.67725 C 88.973912 3.67725 89.868389 4.567875 89.868389 5.669438 Z M 89.868389 5.669438 " transform="matrix(1.00006,0,0,-1,44.313719,30.146)"/>
<path style="fill-rule:nonzero;fill:rgb(0%,0%,0%);fill-opacity:1;stroke-width:0.3985;stroke-linecap:butt;stroke-linejoin:miter;stroke:rgb(0%,0%,0%);stroke-opacity:1;stroke-miterlimit:10;" d="M 104.039414 5.669438 C 104.039414 6.771 103.148842 7.661625 102.047346 7.661625 C 100.949756 7.661625 100.055278 6.771 100.055278 5.669438 C 100.055278 4.567875 100.949756 3.67725 102.047346 3.67725 C 103.148842 3.67725 104.039414 4.567875 104.039414 5.669438 Z M 104.039414 5.669438 " transform="matrix(1.00006,0,0,-1,44.313719,30.146)"/>
<path style="fill:none;stroke-width:0.79701;stroke-linecap:butt;stroke-linejoin:miter;stroke:rgb(0%,0%,0%);stroke-opacity:1;stroke-miterlimit:10;" d="M 70.865623 0.00146875 L 72.049146 -2.311031 L 73.228763 -4.525875 L 74.408379 -6.643062 L 75.591902 -8.658687 L 76.771519 -10.576656 L 77.951136 -12.400875 L 79.134658 -14.119625 L 80.314275 -15.744625 L 81.493892 -17.271969 L 82.673508 -18.69775 L 83.857031 -20.025875 L 85.036648 -21.256344 L 86.216265 -22.389156 L 87.399787 -23.420406 L 88.579404 -24.357906 L 89.759021 -25.193844 L 90.942544 -25.932125 L 92.12216 -26.57275 L 93.301777 -27.115719 L 94.4853 -27.557125 L 95.664916 -27.900875 L 96.844533 -28.150875 L 98.02415 -28.295406 L 99.207673 -28.346187 " transform="matrix(1.00006,0,0,-1,44.313719,30.146)"/>
<path style="fill:none;stroke-width:0.3985;stroke-linecap:butt;stroke-linejoin:miter;stroke:rgb(0%,0%,0%);stroke-opacity:1;stroke-dasharray:0.3985,1.99255;stroke-miterlimit:10;" d="M 141.732465 -38.533687 L 141.732465 24.360844 C 141.732465 26.563969 143.517514 28.345219 145.720507 28.345219 L 208.615171 28.345219 C 210.818164 28.345219 212.599307 26.563969 212.599307 24.360844 L 212.599307 -38.533687 C 212.599307 -40.736812 210.818164 -42.521969 208.615171 -42.521969 L 145.720507 -42.521969 C 143.517514 -42.521969 141.732465 -40.736812 141.732465 -38.533687 Z M 141.732465 -38.533687 " transform="matrix(1.00006,0,0,-1,44.313719,30.146)"/>
<path style="fill-rule:nonzero;fill:rgb(0%,0%,0%);fill-opacity:1;stroke-width:0.3985;stroke-linecap:butt;stroke-linejoin:miter;stroke:rgb(0%,0%,0%);stroke-opacity:1;stroke-miterlimit:10;" d="M 169.238627 5.669438 C 169.238627 6.771 168.348055 7.661625 167.246559 7.661625 C 166.145063 7.661625 165.254491 6.771 165.254491 5.669438 C 165.254491 4.567875 166.145063 3.67725 167.246559 3.67725 C 168.348055 3.67725 169.238627 4.567875 169.238627 5.669438 Z M 169.238627 5.669438 " transform="matrix(1.00006,0,0,-1,44.313719,30.146)"/>
<path style="fill-rule:nonzero;fill:rgb(0%,0%,0%);fill-opacity:1;stroke-width:0.3985;stroke-linecap:butt;stroke-linejoin:miter;stroke:rgb(0%,0%,0%);stroke-opacity:1;stroke-miterlimit:10;" d="M 183.413558 5.669438 C 183.413558 6.771 182.51908 7.661625 181.417584 7.661625 C 180.319993 7.661625 179.425516 6.771 179.425516 5.669438 C 179.425516 4.567875 180.319993 3.67725 181.417584 3.67725 C 182.51908 3.67725 183.413558 4.567875 183.413558 5.669438 Z M 183.413558 5.669438 " transform="matrix(1.00006,0,0,-1,44.313719,30.146)"/>
<path style="fill:none;stroke-width:0.79701;stroke-linecap:butt;stroke-linejoin:miter;stroke:rgb(0%,0%,0%);stroke-opacity:1;stroke-miterlimit:10;" d="M 170.082326 -28.346187 L 171.261943 -28.299312 L 172.44156 -28.150875 L 173.625083 -27.904781 L 174.804699 -27.561031 L 175.984316 -27.115719 L 177.163933 -26.576656 L 178.347455 -25.936031 L 179.527072 -25.19775 L 180.706689 -24.361812 L 181.890212 -23.428219 L 183.069828 -22.396969 L 184.249445 -21.264156 L 185.432968 -20.033687 L 186.612585 -18.705562 L 187.792201 -17.279781 L 188.975724 -15.756344 L 190.155341 -14.131344 L 191.334957 -12.408687 L 192.51848 -10.588375 L 193.698097 -8.670406 L 194.877714 -6.654781 L 196.05733 -4.537594 L 197.240853 -2.326656 L 198.42047 -0.0141562 " transform="matrix(1.00006,0,0,-1,44.313719,30.146)"/>
</g>
</svg>
