<?xml version="1.0" encoding="UTF-8"?>
<svg xmlns="http://www.w3.org/2000/svg" xmlns:xlink="http://www.w3.org/1999/xlink" width="230pt" height="174pt" viewBox="0 0 230 174" version="1.1">
<g id="surface1">
<path style="fill:none;stroke-width:0.3985;stroke-linecap:butt;stroke-linejoin:miter;stroke:rgb(0%,0%,0%);stroke-opacity:1;stroke-miterlimit:10;" d="M -24.758465 0.00128153 L 194.840416 0.00128153 " transform="matrix(1.00003,0,0,-1.00003,30.036551,86.841125)"/>
<path style=" stroke:none;fill-rule:nonzero;fill:rgb(0%,0%,0%);fill-opacity:1;" d="M 1.6875 86.839844 C 2.75 87.039063 4.480469 87.636719 5.675781 88.335938 L 5.675781 85.347656 C 4.480469 86.042969 2.75 86.640625 1.6875 86.839844 "/>
<path style=" stroke:none;fill-rule:nonzero;fill:rgb(0%,0%,0%);fill-opacity:1;" d="M 228.46875 86.839844 C 227.40625 86.640625 225.679688 86.042969 224.484375 85.347656 L 224.484375 88.335938 C 225.679688 87.636719 227.40625 87.039063 228.46875 86.839844 "/>
<path style="fill:none;stroke-width:0.3985;stroke-linecap:butt;stroke-linejoin:miter;stroke:rgb(0%,0%,0%);stroke-opacity:1;stroke-miterlimit:10;" d="M -0.00139476 -81.453306 L -0.00139476 81.451963 " transform="matrix(1.00003,0,0,-1.00003,30.036551,86.841125)"/>
<path style=" stroke:none;fill-rule:nonzero;fill:rgb(0%,0%,0%);fill-opacity:1;" d="M 30.035156 171.882813 C 30.234375 170.820313 30.832031 169.09375 31.53125 167.898438 L 28.542969 167.898438 C 29.238281 169.09375 29.835938 170.820313 30.035156 171.882813 "/>
<path style=" stroke:none;fill-rule:nonzero;fill:rgb(0%,0%,0%);fill-opacity:1;" d="M 30.035156 1.796875 C 29.835938 2.859375 29.238281 4.585938 28.542969 5.785156 L 31.53125 5.785156 C 30.832031 4.585938 30.234375 2.859375 30.035156 1.796875 "/>
<path style="fill:none;stroke-width:0.3985;stroke-linecap:butt;stroke-linejoin:miter;stroke:rgb(0%,0%,0%);stroke-opacity:1;stroke-dasharray:0.3985,1.99255;stroke-miterlimit:10;" d="M -14.172845 -85.039136 L 184.254796 -85.039136 M -14.172845 -56.69233 L 184.254796 -56.69233 M -14.172845 -28.345524 L 184.254796 -28.345524 M -14.172845 0.00128153 L 184.254796 0.00128153 M -14.172845 28.348087 L 184.254796 28.348087 M -14.172845 56.694893 L 184.254796 56.694893 M -14.172845 85.029981 L 184.254796 85.029981 M -0.00139476 -85.039136 L -0.00139476 85.041699 M 28.345411 -85.039136 L 28.345411 85.041699 M 56.692217 -85.039136 L 56.692217 85.041699 M 85.039023 -85.039136 L 85.039023 85.041699 M 113.385829 -85.039136 L 113.385829 85.041699 M 141.732634 -85.039136 L 141.732634 85.041699 M 170.07944 -85.039136 L 170.07944 85.041699 " transform="matrix(1.00003,0,0,-1.00003,30.036551,86.841125)"/>
<path style="fill-rule:nonzero;fill:rgb(0%,0%,0%);fill-opacity:1;stroke-width:0.3985;stroke-linecap:butt;stroke-linejoin:miter;stroke:rgb(0%,0%,0%);stroke-opacity:1;stroke-miterlimit:10;" d="M 2.990703 -28.345524 C 2.990703 -26.697136 1.650899 -25.357333 -0.00139476 -25.357333 C -1.649783 -25.357333 -2.989586 -26.697136 -2.989586 -28.345524 C -2.989586 -29.997818 -1.649783 -31.333716 -0.00139476 -31.333716 C 1.650899 -31.333716 2.990703 -29.997818 2.990703 -28.345524 Z M 2.990703 -28.345524 " transform="matrix(1.00003,0,0,-1.00003,30.036551,86.841125)"/>
<path style="fill:none;stroke-width:0.79701;stroke-linecap:butt;stroke-linejoin:miter;stroke:rgb(0%,0%,0%);stroke-opacity:1;stroke-miterlimit:10;" d="M -0.00139476 -28.345524 L 1.182163 -28.251777 L 2.361816 -27.970536 L 3.541468 -27.517424 L 4.725026 -26.904161 L 5.904678 -26.142465 L 7.08433 -25.247961 L 8.263982 -24.22846 L 9.447541 -23.099588 L 10.627193 -21.873062 L 11.806845 -20.556695 L 12.990403 -19.170018 L 14.170055 -17.720843 L 15.349707 -16.220888 L 16.533265 -14.685778 L 17.712918 -13.127231 L 18.89257 -11.556965 L 20.072222 -9.982794 L 21.25578 -8.420341 L 22.435432 -6.885231 L 23.615084 -5.389182 L 24.798642 -3.940006 L 25.978295 -2.549423 L 27.157947 -1.236963 L 28.341505 -0.00653073 " transform="matrix(1.00003,0,0,-1.00003,30.036551,86.841125)"/>
<path style="fill-rule:nonzero;fill:rgb(0%,0%,0%);fill-opacity:1;stroke-width:0.3985;stroke-linecap:butt;stroke-linejoin:miter;stroke:rgb(0%,0%,0%);stroke-opacity:1;stroke-miterlimit:10;" d="M 31.337509 0.00128153 C 31.337509 1.64967 29.997705 2.989473 28.345411 2.989473 C 26.697023 2.989473 25.357219 1.64967 25.357219 0.00128153 C 25.357219 -1.651013 26.697023 -2.98691 28.345411 -2.98691 C 29.997705 -2.98691 31.337509 -1.651013 31.337509 0.00128153 Z M 31.337509 0.00128153 " transform="matrix(1.00003,0,0,-1.00003,30.036551,86.841125)"/>
<path style="fill:none;stroke-width:0.79701;stroke-linecap:butt;stroke-linejoin:miter;stroke:rgb(0%,0%,0%);stroke-opacity:1;stroke-miterlimit:10;" d="M 28.345411 0.00128153 L 29.528969 1.227807 L 30.708621 2.540268 L 31.888274 3.930851 L 33.071832 5.380026 L 34.251484 6.876075 L 35.431136 8.415092 L 36.610788 9.973639 L 37.794346 11.543904 L 38.973998 13.118076 L 40.153651 14.676623 L 41.337209 16.211733 L 42.516861 17.711688 L 43.696513 19.160863 L 44.880071 20.551446 L 46.059723 21.863907 L 47.239376 23.090433 L 48.419028 24.223211 L 49.602586 25.242712 L 50.782238 26.137216 L 51.96189 26.898912 L 53.145448 27.512175 L 54.3251 27.965286 L 55.504753 28.250434 L 56.688311 28.348087 " transform="matrix(1.00003,0,0,-1.00003,30.036551,86.841125)"/>
<path style="fill-rule:nonzero;fill:rgb(0%,0%,0%);fill-opacity:1;stroke-width:0.3985;stroke-linecap:butt;stroke-linejoin:miter;stroke:rgb(0%,0%,0%);stroke-opacity:1;stroke-miterlimit:10;" d="M 59.684315 28.348087 C 59.684315 29.996475 58.344511 31.336279 56.692217 31.336279 C 55.043829 31.336279 53.704025 29.996475 53.704025 28.348087 C 53.704025 26.695793 55.043829 25.359896 56.692217 25.359896 C 58.344511 25.359896 59.684315 26.695793 59.684315 28.348087 Z M 59.684315 28.348087 " transform="matrix(1.00003,0,0,-1.00003,30.036551,86.841125)"/>
<path style="fill:none;stroke-width:0.79701;stroke-linecap:butt;stroke-linejoin:miter;stroke:rgb(0%,0%,0%);stroke-opacity:1;stroke-miterlimit:10;" d="M 56.692217 28.348087 L 57.875775 28.273871 L 59.055427 28.059034 L 60.235079 27.711388 L 61.418638 27.230933 L 62.59829 26.629389 L 63.777942 25.910661 L 64.957594 25.08256 L 66.141152 24.148995 L 67.320804 23.117776 L 68.500456 21.992809 L 69.684015 20.781908 L 70.863667 19.492884 L 72.043319 18.129644 L 73.226877 16.696093 L 74.406529 15.20395 L 75.586181 13.657122 L 76.765833 12.059514 L 77.949392 10.415032 L 79.129044 8.739301 L 80.308696 7.032321 L 81.492254 5.297998 L 82.671906 3.544144 L 83.851558 1.782478 L 85.035117 0.0090938 " transform="matrix(1.00003,0,0,-1.00003,30.036551,86.841125)"/>
<path style="fill-rule:nonzero;fill:rgb(0%,0%,0%);fill-opacity:1;stroke-width:0.3985;stroke-linecap:butt;stroke-linejoin:miter;stroke:rgb(0%,0%,0%);stroke-opacity:1;stroke-miterlimit:10;" d="M 88.031121 0.00128153 C 88.031121 1.64967 86.691317 2.989473 85.039023 2.989473 C 83.390635 2.989473 82.050831 1.64967 82.050831 0.00128153 C 82.050831 -1.651013 83.390635 -2.98691 85.039023 -2.98691 C 86.691317 -2.98691 88.031121 -1.651013 88.031121 0.00128153 Z M 88.031121 0.00128153 " transform="matrix(1.00003,0,0,-1.00003,30.036551,86.841125)"/>
<path style="fill:none;stroke-width:0.79701;stroke-linecap:butt;stroke-linejoin:miter;stroke:rgb(0%,0%,0%);stroke-opacity:1;stroke-miterlimit:10;" d="M 85.039023 0.00128153 L 86.222581 -1.908817 L 87.402233 -4.084533 L 88.581885 -6.50243 L 89.765443 -9.115632 L 90.945096 -11.904611 L 92.124748 -14.834211 L 93.3044 -17.869276 L 94.487958 -20.990276 L 95.66761 -24.15815 L 96.847262 -27.345554 L 98.030821 -30.517334 L 99.210473 -33.653959 L 100.390125 -36.708555 L 101.573683 -39.661591 L 102.753335 -42.481819 L 103.932987 -45.130177 L 105.112639 -47.587135 L 106.296198 -49.821443 L 107.47585 -51.786227 L 108.655502 -53.465864 L 109.83906 -54.829105 L 111.018712 -55.840793 L 112.198364 -56.473587 L 113.381922 -56.69233 " transform="matrix(1.00003,0,0,-1.00003,30.036551,86.841125)"/>
<path style="fill-rule:nonzero;fill:rgb(0%,0%,0%);fill-opacity:1;stroke-width:0.3985;stroke-linecap:butt;stroke-linejoin:miter;stroke:rgb(0%,0%,0%);stroke-opacity:1;stroke-miterlimit:10;" d="M 116.377926 -56.69233 C 116.377926 -55.043942 115.038123 -53.704139 113.385829 -53.704139 C 111.737441 -53.704139 110.397637 -55.043942 110.397637 -56.69233 C 110.397637 -58.344624 111.737441 -59.680522 113.385829 -59.680522 C 115.038123 -59.680522 116.377926 -58.344624 116.377926 -56.69233 Z M 116.377926 -56.69233 " transform="matrix(1.00003,0,0,-1.00003,30.036551,86.841125)"/>
<path style="fill:none;stroke-width:0.79701;stroke-linecap:butt;stroke-linejoin:miter;stroke:rgb(0%,0%,0%);stroke-opacity:1;stroke-miterlimit:10;" d="M 113.385829 -56.69233 L 114.569387 -56.438432 L 115.749039 -55.680642 L 116.928691 -54.458022 L 118.112249 -52.829165 L 119.291901 -50.825319 L 120.471554 -48.50117 L 121.651206 -45.899685 L 122.834764 -43.052114 L 124.014416 -40.013143 L 125.194068 -36.81402 L 126.377626 -33.509432 L 127.557278 -30.126721 L 128.736931 -26.728385 L 129.920489 -23.353487 L 131.100141 -20.033274 L 132.279793 -16.822433 L 133.459445 -13.752212 L 134.643003 -10.861674 L 135.822656 -8.22894 L 137.002308 -5.861824 L 138.185866 -3.807198 L 139.365518 -2.123655 L 140.54517 -0.834631 L 141.728728 -0.0026246 " transform="matrix(1.00003,0,0,-1.00003,30.036551,86.841125)"/>
<path style="fill-rule:nonzero;fill:rgb(0%,0%,0%);fill-opacity:1;stroke-width:0.3985;stroke-linecap:butt;stroke-linejoin:miter;stroke:rgb(0%,0%,0%);stroke-opacity:1;stroke-miterlimit:10;" d="M 144.724732 0.00128153 C 144.724732 1.64967 143.384929 2.989473 141.732634 2.989473 C 140.084246 2.989473 138.744443 1.64967 138.744443 0.00128153 C 138.744443 -1.651013 140.084246 -2.98691 141.732634 -2.98691 C 143.384929 -2.98691 144.724732 -1.651013 144.724732 0.00128153 Z M 144.724732 0.00128153 " transform="matrix(1.00003,0,0,-1.00003,30.036551,86.841125)"/>
<path style="fill:none;stroke-width:0.79701;stroke-linecap:butt;stroke-linejoin:miter;stroke:rgb(0%,0%,0%);stroke-opacity:1;stroke-miterlimit:10;" d="M 141.732634 0.00128153 L 142.916193 0.610638 L 144.095845 1.270775 L 145.275497 1.966066 L 146.459055 2.688701 L 147.638707 3.438678 L 148.818359 4.208187 L 149.998012 4.985507 L 151.18157 5.774546 L 152.361222 6.559679 L 153.540874 7.336999 L 154.724432 8.106507 L 155.904084 8.856485 L 157.083736 9.583025 L 158.267295 10.274411 L 159.446947 10.930641 L 160.626599 11.543904 L 161.806251 12.110293 L 162.989809 12.621997 L 164.169461 13.067296 L 165.349113 13.446191 L 166.532672 13.754775 L 167.712324 13.981331 L 168.891976 14.125858 L 170.075534 14.172731 " transform="matrix(1.00003,0,0,-1.00003,30.036551,86.841125)"/>
<path style="fill-rule:nonzero;fill:rgb(0%,0%,0%);fill-opacity:1;stroke-width:0.3985;stroke-linecap:butt;stroke-linejoin:miter;stroke:rgb(0%,0%,0%);stroke-opacity:1;stroke-miterlimit:10;" d="M 173.071538 14.172731 C 173.071538 15.825026 171.731734 17.160923 170.07944 17.160923 C 168.431052 17.160923 167.091249 15.825026 167.091249 14.172731 C 167.091249 12.524343 168.431052 11.18454 170.07944 11.18454 C 171.731734 11.18454 173.071538 12.524343 173.071538 14.172731 Z M 173.071538 14.172731 " transform="matrix(1.00003,0,0,-1.00003,30.036551,86.841125)"/>
</g>
</svg>
