<?xml version="1.0" encoding="UTF-8"?>
<svg xmlns="http://www.w3.org/2000/svg" xmlns:xlink="http://www.w3.org/1999/xlink" width="202pt" height="105pt" viewBox="0 0 202 105" version="1.1">
<g id="surface1">
<path style="fill:none;stroke-width:0.3985;stroke-linecap:butt;stroke-linejoin:miter;stroke:rgb(0%,0%,0%);stroke-opacity:1;stroke-miterlimit:10;" d="M -38.932094 -0.00137444 L 152.321812 -0.00137444 " transform="matrix(1,0,0,-1.00002,44.311,89.463469)"/>
<path style=" stroke:none;fill-rule:nonzero;fill:rgb(0%,0%,0%);fill-opacity:1;" d="M 1.789063 89.464844 C 2.855469 89.664063 4.582031 90.261719 5.777344 90.957031 L 5.777344 87.96875 C 4.582031 88.667969 2.855469 89.265625 1.789063 89.464844 "/>
<path style=" stroke:none;fill-rule:nonzero;fill:rgb(0%,0%,0%);fill-opacity:1;" d="M 200.21875 89.464844 C 199.15625 89.265625 197.429688 88.667969 196.234375 87.96875 L 196.234375 90.957031 C 197.429688 90.261719 199.15625 89.664063 200.21875 89.464844 "/>
<path style="fill:none;stroke-width:0.3985;stroke-linecap:butt;stroke-linejoin:miter;stroke:rgb(0%,0%,0%);stroke-opacity:1;stroke-miterlimit:10;" d="M 0.0015 -10.5871 L 0.0015 81.457934 " transform="matrix(1,0,0,-1.00002,44.311,89.463469)"/>
<path style=" stroke:none;fill-rule:nonzero;fill:rgb(0%,0%,0%);fill-opacity:1;" d="M 44.3125 103.636719 C 44.511719 102.574219 45.109375 100.847656 45.804688 99.652344 L 42.816406 99.652344 C 43.515625 100.847656 44.113281 102.574219 44.3125 103.636719 "/>
<path style=" stroke:none;fill-rule:nonzero;fill:rgb(0%,0%,0%);fill-opacity:1;" d="M 44.3125 4.417969 C 44.113281 5.480469 43.515625 7.207031 42.816406 8.402344 L 45.804688 8.402344 C 45.109375 7.207031 44.511719 5.480469 44.3125 4.417969 "/>
<path style="fill:none;stroke-width:0.79701;stroke-linecap:butt;stroke-linejoin:miter;stroke:rgb(0%,0%,0%);stroke-opacity:1;stroke-miterlimit:10;" d="M 0.0015 28.349621 L 5.903844 32.951092 L 11.810094 36.232276 L 17.716344 38.341609 L 23.622594 39.439243 L 29.528844 39.673613 L 35.431187 39.200967 L 41.337437 38.173643 L 47.243687 36.747891 L 53.149937 35.076049 L 59.056187 33.310459 L 64.958531 31.607368 L 70.864781 30.119117 L 76.771031 29.001952 L 82.677281 28.404307 L 88.583531 28.486337 L 94.485875 29.396475 L 100.392125 31.294875 L 106.298375 34.326064 L 112.204625 38.650196 L 118.106969 44.423518 L 124.013219 51.794465 L 129.919469 60.915376 L 135.825719 71.946405 L 141.731969 85.035987 " transform="matrix(1,0,0,-1.00002,44.311,89.463469)"/>
<path style=" stroke:none;fill-rule:nonzero;fill:rgb(0%,0%,100%);fill-opacity:1;" d="M 47.128906 61.113281 C 47.128906 59.558594 45.867188 58.296875 44.3125 58.296875 C 42.753906 58.296875 41.492188 59.558594 41.492188 61.113281 C 41.492188 62.671875 42.753906 63.933594 44.3125 63.933594 C 45.867188 63.933594 47.128906 62.671875 47.128906 61.113281 Z M 47.128906 61.113281 "/>
<path style=" stroke:none;fill-rule:nonzero;fill:rgb(0%,0%,100%);fill-opacity:1;" d="M 188.863281 4.417969 C 188.863281 2.859375 187.601563 1.597656 186.046875 1.597656 C 184.488281 1.597656 183.226563 2.859375 183.226563 4.417969 C 183.226563 5.972656 184.488281 7.234375 186.046875 7.234375 C 187.601563 7.234375 188.863281 5.972656 188.863281 4.417969 Z M 188.863281 4.417969 "/>
<path style=" stroke:none;fill-rule:nonzero;fill:rgb(100%,0%,0%);fill-opacity:1;" d="M 75.476563 49.773438 C 75.476563 48.21875 74.214844 46.957031 72.65625 46.957031 C 71.101563 46.957031 69.839844 48.21875 69.839844 49.773438 C 69.839844 51.332031 71.101563 52.59375 72.65625 52.59375 C 74.214844 52.59375 75.476563 51.332031 75.476563 49.773438 Z M 75.476563 49.773438 "/>
<path style=" stroke:none;fill-rule:nonzero;fill:rgb(100%,0%,0%);fill-opacity:1;" d="M 132.167969 61.113281 C 132.167969 59.558594 130.90625 58.296875 129.351563 58.296875 C 127.796875 58.296875 126.535156 59.558594 126.535156 61.113281 C 126.535156 62.671875 127.796875 63.933594 129.351563 63.933594 C 130.90625 63.933594 132.167969 62.671875 132.167969 61.113281 Z M 132.167969 61.113281 "/>
</g>
</svg>
