<?xml version="1.0" encoding="UTF-8"?>
<svg xmlns="http://www.w3.org/2000/svg" xmlns:xlink="http://www.w3.org/1999/xlink" width="117pt" height="131pt" viewBox="0 0 117 131" version="1.1">
<g id="surface1">
<path style="fill:none;stroke-width:0.3985;stroke-linecap:butt;stroke-linejoin:miter;stroke:rgb(0%,0%,0%);stroke-opacity:1;stroke-miterlimit:10;" d="M -24.759221 0.000524974 L 81.453498 0.000524974 " transform="matrix(1.00002,0,0,-1.00003,30.138623,101.207556)"/>
<path style=" stroke:none;fill-rule:nonzero;fill:rgb(0%,0%,0%);fill-opacity:1;" d="M 1.792969 101.207031 C 2.855469 101.40625 4.582031 102.003906 5.777344 102.703125 L 5.777344 99.714844 C 4.582031 100.410156 2.855469 101.007813 1.792969 101.207031 "/>
<path style=" stroke:none;fill-rule:nonzero;fill:rgb(0%,0%,0%);fill-opacity:1;" d="M 115.179688 101.207031 C 114.117188 101.007813 112.390625 100.410156 111.195313 99.714844 L 111.195313 102.703125 C 112.390625 102.003906 114.117188 101.40625 115.179688 101.207031 "/>
<path style="fill:none;stroke-width:0.3985;stroke-linecap:butt;stroke-linejoin:miter;stroke:rgb(0%,0%,0%);stroke-opacity:1;stroke-miterlimit:10;" d="M -0.00190397 -24.760451 L -0.00190397 81.455113 " transform="matrix(1.00002,0,0,-1.00003,30.138623,101.207556)"/>
<path style=" stroke:none;fill-rule:nonzero;fill:rgb(0%,0%,0%);fill-opacity:1;" d="M 30.136719 129.554688 C 30.335938 128.492188 30.9375 126.765625 31.632813 125.570313 L 28.644531 125.570313 C 29.339844 126.765625 29.9375 128.492188 30.136719 129.554688 "/>
<path style=" stroke:none;fill-rule:nonzero;fill:rgb(0%,0%,0%);fill-opacity:1;" d="M 30.136719 16.164063 C 29.9375 17.226563 29.339844 18.953125 28.644531 20.148438 L 31.632813 20.148438 C 30.9375 18.953125 30.335938 17.226563 30.136719 16.164063 "/>
<path style="fill:none;stroke-width:0.79701;stroke-linecap:butt;stroke-linejoin:miter;stroke:rgb(0%,0%,0%);stroke-opacity:1;stroke-miterlimit:10;" d="M 14.173594 14.171975 L 15.353258 15.355533 L 16.536828 16.535185 L 17.716492 17.714837 L 18.896156 18.898396 L 20.075819 20.078048 L 21.25939 21.2577 L 22.439053 22.437352 L 23.618717 23.62091 L 24.802287 24.800562 L 25.981951 25.980214 L 27.161615 27.163773 L 28.345185 28.343425 L 29.524849 29.523077 L 30.704513 30.706635 L 31.884177 31.886287 L 33.067747 33.065939 L 34.247411 34.245591 L 35.427075 35.42915 L 36.610645 36.608802 L 37.790309 37.788454 L 38.969973 38.972012 L 40.153543 40.151664 L 41.333207 41.331316 L 42.512871 42.514875 " transform="matrix(1.00002,0,0,-1.00003,30.138623,101.207556)"/>
<path style="fill:none;stroke-width:0.79701;stroke-linecap:butt;stroke-linejoin:miter;stroke:rgb(0%,0%,0%);stroke-opacity:1;stroke-miterlimit:10;" d="M 42.520683 70.865587 L 43.700347 72.049145 L 44.880011 73.228797 L 46.063581 74.408449 L 47.243245 75.592007 L 48.422909 76.771659 L 49.606479 77.951311 L 50.786143 79.130964 L 51.965807 80.314522 L 53.149377 81.494174 L 54.329041 82.673826 L 55.508705 83.857384 L 56.688368 85.037036 L 57.871939 86.216688 L 59.051602 87.400247 L 60.231266 88.579899 L 61.414836 89.759551 L 62.5945 90.939203 L 63.774164 92.122761 L 64.957734 93.302413 L 66.137398 94.482066 L 67.317062 95.665624 L 68.496726 96.845276 L 69.680296 98.024928 L 70.85996 99.208486 " transform="matrix(1.00002,0,0,-1.00003,30.138623,101.207556)"/>
<path style="fill-rule:nonzero;fill:rgb(100%,100%,100%);fill-opacity:1;stroke-width:0.3985;stroke-linecap:butt;stroke-linejoin:miter;stroke:rgb(0%,0%,0%);stroke-opacity:1;stroke-miterlimit:10;" d="M 45.508905 42.518781 C 45.508905 44.171075 44.169088 45.510878 42.520683 45.510878 C 40.868372 45.510878 39.532462 44.171075 39.532462 42.518781 C 39.532462 40.870393 40.868372 39.530589 42.520683 39.530589 C 44.169088 39.530589 45.508905 40.870393 45.508905 42.518781 Z M 45.508905 42.518781 " transform="matrix(1.00002,0,0,-1.00003,30.138623,101.207556)"/>
<path style="fill-rule:nonzero;fill:rgb(0%,0%,0%);fill-opacity:1;stroke-width:0.3985;stroke-linecap:butt;stroke-linejoin:miter;stroke:rgb(0%,0%,0%);stroke-opacity:1;stroke-miterlimit:10;" d="M 45.508905 70.865587 C 45.508905 72.517881 44.169088 73.857684 42.520683 73.857684 C 40.868372 73.857684 39.532462 72.517881 39.532462 70.865587 C 39.532462 69.217198 40.868372 67.877395 42.520683 67.877395 C 44.169088 67.877395 45.508905 69.217198 45.508905 70.865587 Z M 45.508905 70.865587 " transform="matrix(1.00002,0,0,-1.00003,30.138623,101.207556)"/>
</g>
</svg>
