<?xml version="1.0" encoding="UTF-8"?>
<svg xmlns="http://www.w3.org/2000/svg" xmlns:xlink="http://www.w3.org/1999/xlink" width="105pt" height="218pt" viewBox="0 0 105 218" version="1.1">
<g id="surface1">
<path style="fill:none;stroke-width:0.09962;stroke-linecap:butt;stroke-linejoin:miter;stroke:rgb(50%,50%,50%);stroke-opacity:1;stroke-miterlimit:10;" d="M -15.876533 -14.175063 L 86.746215 -14.175063 M -15.876533 -11.339125 L 86.746215 -11.339125 M -15.876533 -8.503188 L 86.746215 -8.503188 M -15.876533 -5.671156 L 86.746215 -5.671156 M -15.876533 -2.835219 L 86.746215 -2.835219 M -15.876533 0.00071875 L 86.746215 0.00071875 M -15.876533 2.836656 L 86.746215 2.836656 M -15.876533 5.668687 L 86.746215 5.668687 M -15.876533 8.504625 L 86.746215 8.504625 M -15.876533 11.340562 L 86.746215 11.340562 M -15.876533 14.172594 L 86.746215 14.172594 M -15.876533 17.008531 L 86.746215 17.008531 M -15.876533 19.844469 L 86.746215 19.844469 M -15.876533 22.680406 L 86.746215 22.680406 M -15.876533 25.512437 L 86.746215 25.512437 M -15.876533 28.348375 L 86.746215 28.348375 M -15.876533 31.184312 L 86.746215 31.184312 M -15.876533 34.016344 L 86.746215 34.016344 M -15.876533 36.852281 L 86.746215 36.852281 M -15.876533 39.688219 L 86.746215 39.688219 M -15.876533 42.524156 L 86.746215 42.524156 M -15.876533 45.356187 L 86.746215 45.356187 M -15.876533 48.192125 L 86.746215 48.192125 M -15.876533 51.028062 L 86.746215 51.028062 M -15.876533 53.864 L 86.746215 53.864 M -15.876533 56.696031 L 86.746215 56.696031 M -15.876533 59.531969 L 86.746215 59.531969 M -15.876533 62.367906 L 86.746215 62.367906 M -15.876533 65.199937 L 86.746215 65.199937 M -15.876533 68.035875 L 86.746215 68.035875 M -15.876533 70.871812 L 86.746215 70.871812 M -15.876533 73.70775 L 86.746215 73.70775 M -15.876533 76.539781 L 86.746215 76.539781 M -15.876533 79.375719 L 86.746215 79.375719 M -15.876533 82.211656 L 86.746215 82.211656 M -15.876533 85.043687 L 86.746215 85.043687 M -15.876533 87.879625 L 86.746215 87.879625 M -15.876533 90.715562 L 86.746215 90.715562 M -15.876533 93.5515 L 86.746215 93.5515 M -15.876533 96.383531 L 86.746215 96.383531 M -15.876533 99.219469 L 86.746215 99.219469 M -15.876533 102.055406 L 86.746215 102.055406 M -15.876533 104.891344 L 86.746215 104.891344 M -15.876533 107.723375 L 86.746215 107.723375 M -15.876533 110.559312 L 86.746215 110.559312 M -15.876533 113.39525 L 86.746215 113.39525 M -15.876533 116.227281 L 86.746215 116.227281 M -15.876533 119.063219 L 86.746215 119.063219 M -15.876533 121.899156 L 86.746215 121.899156 M -15.876533 124.735094 L 86.746215 124.735094 M -15.876533 127.567125 L 86.746215 127.567125 M -15.876533 130.403062 L 86.746215 130.403062 M -15.876533 133.239 L 86.746215 133.239 M -15.876533 136.071031 L 86.746215 136.071031 M -15.876533 138.906969 L 86.746215 138.906969 M -15.876533 141.742906 L 86.746215 141.742906 M -15.876533 144.578844 L 86.746215 144.578844 M -15.876533 147.410875 L 86.746215 147.410875 M -15.876533 150.246812 L 86.746215 150.246812 M -15.876533 153.08275 L 86.746215 153.08275 M -15.876533 155.918687 L 86.746215 155.918687 M -15.876533 158.750719 L 86.746215 158.750719 M -15.876533 161.586656 L 86.746215 161.586656 M -15.876533 164.422594 L 86.746215 164.422594 M -15.876533 167.254625 L 86.746215 167.254625 M -15.876533 170.090562 L 86.746215 170.090562 M -15.876533 172.9265 L 86.746215 172.9265 M -15.876533 175.762437 L 86.746215 175.762437 M -15.876533 178.594469 L 86.746215 178.594469 M -15.876533 181.430406 L 86.746215 181.430406 M -15.876533 184.266344 L 86.746215 184.266344 M -14.173511 -15.874281 L -14.173511 185.965562 M -11.337743 -15.874281 L -11.337743 185.965562 M -8.505882 -15.874281 L -8.505882 185.965562 M -5.670115 -15.874281 L -5.670115 185.965562 M -2.834347 -15.874281 L -2.834347 185.965562 M 0.00142014 -15.874281 L 0.00142014 185.965562 M 2.833281 -15.874281 L 2.833281 185.965562 M 5.669049 -15.874281 L 5.669049 185.965562 M 8.504816 -15.874281 L 8.504816 185.965562 M 11.340584 -15.874281 L 11.340584 185.965562 M 14.172445 -15.874281 L 14.172445 185.965562 M 17.008212 -15.874281 L 17.008212 185.965562 M 19.84398 -15.874281 L 19.84398 185.965562 M 22.679747 -15.874281 L 22.679747 185.965562 M 25.515514 -15.874281 L 25.515514 185.965562 M 28.347376 -15.874281 L 28.347376 185.965562 M 31.183143 -15.874281 L 31.183143 185.965562 M 34.01891 -15.874281 L 34.01891 185.965562 M 36.854678 -15.874281 L 36.854678 185.965562 M 39.686539 -15.874281 L 39.686539 185.965562 M 42.522306 -15.874281 L 42.522306 185.965562 M 45.358074 -15.874281 L 45.358074 185.965562 M 48.193841 -15.874281 L 48.193841 185.965562 M 51.025702 -15.874281 L 51.025702 185.965562 M 53.86147 -15.874281 L 53.86147 185.965562 M 56.697237 -15.874281 L 56.697237 185.965562 M 59.533004 -15.874281 L 59.533004 185.965562 M 62.364866 -15.874281 L 62.364866 185.965562 M 65.200633 -15.874281 L 65.200633 185.965562 M 68.036401 -15.874281 L 68.036401 185.965562 M 70.872168 -15.874281 L 70.872168 185.965562 M 73.707935 -15.874281 L 73.707935 185.965562 M 76.539797 -15.874281 L 76.539797 185.965562 M 79.375564 -15.874281 L 79.375564 185.965562 M 82.211331 -15.874281 L 82.211331 185.965562 M 85.047099 -15.874281 L 85.047099 185.965562 " transform="matrix(1.00006,0,0,-1,17.518111,186.614)"/>
<path style="fill:none;stroke-width:0.3985;stroke-linecap:butt;stroke-linejoin:miter;stroke:rgb(0%,0%,0%);stroke-opacity:1;stroke-miterlimit:10;" d="M 0.00142014 -10.870375 L 0.00142014 180.961656 " transform="matrix(1.00006,0,0,-1,17.518111,186.614)"/>
<path style=" stroke:none;fill-rule:nonzero;fill:rgb(0%,0%,0%);fill-opacity:1;" d="M 17.519531 201.070313 C 17.71875 200.007813 18.316406 198.28125 19.011719 197.085938 L 16.023438 197.085938 C 16.722656 198.28125 17.320313 200.007813 17.519531 201.070313 "/>
<path style=" stroke:none;fill-rule:nonzero;fill:rgb(0%,0%,0%);fill-opacity:1;" d="M 17.519531 2.066406 C 17.320313 3.128906 16.722656 4.855469 16.023438 6.050781 L 19.011719 6.050781 C 18.316406 4.855469 17.71875 3.128906 17.519531 2.066406 "/>
<path style="fill:none;stroke-width:0.3985;stroke-linecap:butt;stroke-linejoin:miter;stroke:rgb(0%,0%,0%);stroke-opacity:1;stroke-miterlimit:10;" d="M -10.872927 0.00071875 L 81.742609 0.00071875 " transform="matrix(1.00006,0,0,-1,17.518111,186.614)"/>
<path style=" stroke:none;fill-rule:nonzero;fill:rgb(0%,0%,0%);fill-opacity:1;" d="M 3.058594 186.613281 C 4.121094 186.8125 5.847656 187.410156 7.042969 188.109375 L 7.042969 185.121094 C 5.847656 185.816406 4.121094 186.414063 3.058594 186.613281 "/>
<path style=" stroke:none;fill-rule:nonzero;fill:rgb(0%,0%,0%);fill-opacity:1;" d="M 102.851563 186.613281 C 101.789063 186.414063 100.0625 185.816406 98.867188 185.121094 L 98.867188 188.109375 C 100.0625 187.410156 101.789063 186.8125 102.851563 186.613281 "/>
<path style="fill:none;stroke-width:1.19553;stroke-linecap:butt;stroke-linejoin:miter;stroke:rgb(100%,0%,0%);stroke-opacity:1;stroke-dasharray:2.98883,2.98883;stroke-miterlimit:10;" d="M -14.173511 0.00071875 L 0.00142014 0.00071875 " transform="matrix(1.00006,0,0,-1,17.518111,186.614)"/>
<path style="fill:none;stroke-width:1.19553;stroke-linecap:butt;stroke-linejoin:miter;stroke:rgb(100%,0%,0%);stroke-opacity:1;stroke-miterlimit:10;" d="M 0.00142014 0.00071875 L 70.872168 0.00071875 " transform="matrix(1.00006,0,0,-1,17.518111,186.614)"/>
<path style="fill:none;stroke-width:1.19553;stroke-linecap:butt;stroke-linejoin:miter;stroke:rgb(100%,0%,0%);stroke-opacity:1;stroke-dasharray:2.98883,2.98883;stroke-miterlimit:10;" d="M 70.872168 0.00071875 L 85.047099 0.00071875 " transform="matrix(1.00006,0,0,-1,17.518111,186.614)"/>
<path style="fill-rule:nonzero;fill:rgb(100%,100%,100%);fill-opacity:1;stroke-width:1.19553;stroke-linecap:butt;stroke-linejoin:miter;stroke:rgb(100%,0%,0%);stroke-opacity:1;stroke-miterlimit:10;" d="M 2.989522 0.00071875 C 2.989522 1.649156 1.649759 2.989 0.00142014 2.989 C -1.650824 2.989 -2.990588 1.649156 -2.990588 0.00071875 C -2.990588 -1.651625 -1.650824 -2.987563 0.00142014 -2.987563 C 1.649759 -2.987563 2.989522 -1.651625 2.989522 0.00071875 Z M 2.989522 0.00071875 " transform="matrix(1.00006,0,0,-1,17.518111,186.614)"/>
<path style="fill-rule:nonzero;fill:rgb(100%,100%,100%);fill-opacity:1;stroke-width:1.19553;stroke-linecap:butt;stroke-linejoin:miter;stroke:rgb(100%,0%,0%);stroke-opacity:1;stroke-miterlimit:10;" d="M 73.86027 0.00071875 C 73.86027 1.649156 72.520506 2.989 70.872168 2.989 C 69.219923 2.989 67.884066 1.649156 67.884066 0.00071875 C 67.884066 -1.651625 69.219923 -2.987563 70.872168 -2.987563 C 72.520506 -2.987563 73.86027 -1.651625 73.86027 0.00071875 Z M 73.86027 0.00071875 " transform="matrix(1.00006,0,0,-1,17.518111,186.614)"/>
<path style="fill:none;stroke-width:0.79701;stroke-linecap:butt;stroke-linejoin:miter;stroke:rgb(0%,0%,0%);stroke-opacity:1;stroke-miterlimit:10;" d="M -2.834347 -29.483656 C -2.834347 -29.483656 -0.529798 -5.233656 0.352962 3.524156 C 1.239627 12.285875 2.657511 25.699937 3.544176 33.664781 C 4.426936 41.629625 5.848726 53.762437 6.731485 60.930406 C 7.618151 68.098375 9.036034 78.95775 9.9227 85.328844 C 10.805459 91.699937 12.227249 101.281969 13.110009 106.856187 C 13.996674 112.430406 15.414558 120.735094 16.301223 125.512437 C 17.183983 130.293687 18.605773 137.317125 19.488532 141.3015 C 20.375198 145.281969 21.793081 151.031969 22.679747 154.215562 C 23.562506 157.403062 24.984296 161.875719 25.867056 164.262437 C 26.753721 166.653062 28.171605 169.848375 29.05827 171.438219 C 29.94103 173.031969 31.36282 174.949937 32.245579 175.746812 C 33.132245 176.543687 34.550128 177.180406 35.436794 177.180406 C 36.319554 177.180406 37.741343 176.543687 38.624103 175.746812 C 39.510768 174.949937 40.928652 173.035875 41.815318 171.442125 C 42.698077 169.848375 44.119867 166.656969 45.002626 164.266344 C 45.889292 161.875719 47.307176 157.406969 48.193841 154.219469 C 49.076601 151.035875 50.49839 145.285875 51.38115 141.305406 C 52.267815 137.324937 53.685699 130.297594 54.572365 125.52025 C 55.455124 120.739 56.876914 112.438219 57.759673 106.864 C 58.646339 101.289781 60.064223 91.70775 60.950888 85.336656 C 61.833648 78.965562 63.255437 68.110094 64.138197 60.942125 C 65.024862 53.774156 66.442746 41.637437 67.329412 33.672594 C 68.212171 25.70775 69.630055 12.297594 70.51672 3.535875 C 71.403386 -5.225844 73.707935 -29.471938 73.707935 -29.471938 " transform="matrix(1.00006,0,0,-1,17.518111,186.614)"/>
</g>
</svg>
