<?xml version="1.0" encoding="UTF-8"?>
<svg xmlns="http://www.w3.org/2000/svg" xmlns:xlink="http://www.w3.org/1999/xlink" width="117pt" height="117pt" viewBox="0 0 117 117" version="1.1">
<g id="surface1">
<path style="fill:none;stroke-width:0.3985;stroke-linecap:butt;stroke-linejoin:miter;stroke:rgb(0%,0%,0%);stroke-opacity:1;stroke-miterlimit:10;" d="M -24.759221 -0.00084375 L 81.453498 -0.00084375 " transform="matrix(1.00002,0,0,-1,30.138623,86.839)"/>
<path style=" stroke:none;fill-rule:nonzero;fill:rgb(0%,0%,0%);fill-opacity:1;" d="M 1.792969 86.839844 C 2.855469 87.039063 4.582031 87.636719 5.777344 88.332031 L 5.777344 85.34375 C 4.582031 86.042969 2.855469 86.640625 1.792969 86.839844 "/>
<path style=" stroke:none;fill-rule:nonzero;fill:rgb(0%,0%,0%);fill-opacity:1;" d="M 115.179688 86.839844 C 114.117188 86.640625 112.390625 86.042969 111.195313 85.34375 L 111.195313 88.332031 C 112.390625 87.636719 114.117188 87.039063 115.179688 86.839844 "/>
<path style="fill:none;stroke-width:0.3985;stroke-linecap:butt;stroke-linejoin:miter;stroke:rgb(0%,0%,0%);stroke-opacity:1;stroke-miterlimit:10;" d="M -0.00190397 -24.758656 L -0.00190397 81.452281 " transform="matrix(1.00002,0,0,-1,30.138623,86.839)"/>
<path style=" stroke:none;fill-rule:nonzero;fill:rgb(0%,0%,0%);fill-opacity:1;" d="M 30.136719 115.1875 C 30.335938 114.125 30.9375 112.394531 31.632813 111.199219 L 28.644531 111.199219 C 29.339844 112.394531 29.9375 114.125 30.136719 115.1875 "/>
<path style=" stroke:none;fill-rule:nonzero;fill:rgb(0%,0%,0%);fill-opacity:1;" d="M 30.136719 1.796875 C 29.9375 2.859375 29.339844 4.589844 28.644531 5.785156 L 31.632813 5.785156 C 30.9375 4.589844 30.335938 2.859375 30.136719 1.796875 "/>
<path style="fill:none;stroke-width:0.79701;stroke-linecap:butt;stroke-linejoin:miter;stroke:rgb(0%,0%,0%);stroke-opacity:1;stroke-miterlimit:10;" d="M 14.173594 14.174937 L 16.536828 16.534312 L 18.896156 18.897594 L 21.25939 21.260875 L 23.622624 23.62025 L 25.981951 25.983531 L 28.345185 28.346812 L 30.708419 30.706187 L 33.071653 33.069469 L 35.430981 35.43275 L 37.794215 37.796031 L 40.157449 40.155406 L 42.516777 42.518687 L 44.880011 44.881969 L 47.243245 47.241344 L 49.606479 49.604625 L 51.965807 51.967906 L 54.329041 54.327281 L 56.692275 56.690562 L 59.051602 59.053844 L 61.414836 61.417125 L 63.77807 63.7765 L 66.141304 66.139781 L 68.500632 68.503062 L 70.863866 70.862437 " transform="matrix(1.00002,0,0,-1,30.138623,86.839)"/>
<path style="fill-rule:nonzero;fill:rgb(100%,100%,100%);fill-opacity:1;stroke-width:0.3985;stroke-linecap:butt;stroke-linejoin:miter;stroke:rgb(0%,0%,0%);stroke-opacity:1;stroke-miterlimit:10;" d="M 45.508905 42.518687 C 45.508905 44.171031 44.169088 45.510875 42.520683 45.510875 C 40.868372 45.510875 39.532462 44.171031 39.532462 42.518687 C 39.532462 40.87025 40.868372 39.530406 42.520683 39.530406 C 44.169088 39.530406 45.508905 40.87025 45.508905 42.518687 Z M 45.508905 42.518687 " transform="matrix(1.00002,0,0,-1,30.138623,86.839)"/>
<path style="fill-rule:nonzero;fill:rgb(0%,0%,0%);fill-opacity:1;stroke-width:0.3985;stroke-linecap:butt;stroke-linejoin:miter;stroke:rgb(0%,0%,0%);stroke-opacity:1;stroke-miterlimit:10;" d="M 45.508905 14.174937 C 45.508905 15.823375 44.169088 17.163219 42.520683 17.163219 C 40.868372 17.163219 39.532462 15.823375 39.532462 14.174937 C 39.532462 12.522594 40.868372 11.18275 42.520683 11.18275 C 44.169088 11.18275 45.508905 12.522594 45.508905 14.174937 Z M 45.508905 14.174937 " transform="matrix(1.00002,0,0,-1,30.138623,86.839)"/>
</g>
</svg>
