<?xml version="1.0" encoding="UTF-8"?>
<svg xmlns="http://www.w3.org/2000/svg" xmlns:xlink="http://www.w3.org/1999/xlink" width="103pt" height="329pt" viewBox="0 0 103 329" version="1.1">
<g id="surface1">
<path style="fill:none;stroke-width:0.3985;stroke-linecap:butt;stroke-linejoin:miter;stroke:rgb(0%,0%,0%);stroke-opacity:1;stroke-miterlimit:10;" d="M -0.00163439 -17.673785 L -0.00163439 301.140869 " transform="matrix(1.00003,0,0,-1.00003,51.400072,306.532716)"/>
<path style=" stroke:none;fill-rule:nonzero;fill:rgb(0%,0%,0%);fill-opacity:1;" d="M 51.398438 327.792969 C 51.597656 326.730469 52.195313 325.003906 52.894531 323.808594 L 49.90625 323.808594 C 50.601563 325.003906 51.199219 326.730469 51.398438 327.792969 "/>
<path style=" stroke:none;fill-rule:nonzero;fill:rgb(0%,0%,0%);fill-opacity:1;" d="M 51.398438 1.796875 C 51.199219 2.859375 50.601563 4.585938 49.90625 5.78125 L 52.894531 5.78125 C 52.195313 4.585938 51.597656 2.859375 51.398438 1.796875 "/>
<path style="fill:none;stroke-width:0.3985;stroke-linecap:butt;stroke-linejoin:miter;stroke:rgb(0%,0%,0%);stroke-opacity:1;stroke-miterlimit:10;" d="M -46.019785 0.00146595 L 46.020422 0.00146595 " transform="matrix(1.00003,0,0,-1.00003,51.400072,306.532716)"/>
<path style=" stroke:none;fill-rule:nonzero;fill:rgb(0%,0%,0%);fill-opacity:1;" d="M 1.792969 306.53125 C 2.855469 306.730469 4.582031 307.328125 5.777344 308.027344 L 5.777344 305.039063 C 4.582031 305.734375 2.855469 306.332031 1.792969 306.53125 "/>
<path style=" stroke:none;fill-rule:nonzero;fill:rgb(0%,0%,0%);fill-opacity:1;" d="M 101.007813 306.53125 C 99.945313 306.332031 98.21875 305.734375 97.023438 305.039063 L 97.023438 308.027344 C 98.21875 307.328125 99.945313 306.730469 101.007813 306.53125 "/>
<path style="fill:none;stroke-width:0.79701;stroke-linecap:butt;stroke-linejoin:miter;stroke:rgb(0%,0%,100%);stroke-opacity:1;stroke-miterlimit:10;" d="M -42.51989 8.856669 C -42.51989 8.856669 -40.344174 9.841015 -39.508262 10.262877 C -38.672349 10.684739 -37.332546 11.403468 -36.496633 11.89564 C -35.660721 12.383907 -34.320917 13.219819 -33.485005 13.786209 C -32.649092 14.352598 -31.309289 15.313507 -30.473376 15.969737 C -29.637464 16.625967 -28.297661 17.747027 -27.461748 18.508723 C -26.625836 19.266513 -25.286032 20.563349 -24.45012 21.442229 C -23.614207 22.321109 -22.274404 23.82497 -21.438491 24.844471 C -20.602579 25.863971 -19.262775 27.606107 -18.426863 28.785759 C -17.59095 29.965411 -16.251147 31.988788 -15.415234 33.355934 C -14.579322 34.726987 -13.239519 37.058948 -12.403606 38.644838 C -11.567694 40.230728 -10.22789 42.94549 -9.391978 44.785279 C -8.556065 46.621161 -7.216262 49.757786 -6.380349 51.886628 C -5.544437 54.015471 -4.204633 57.659892 -3.368721 60.124662 C -2.532808 62.589432 -1.193005 66.804149 -0.357092 69.655626 C 0.47882 72.511009 1.818624 77.385863 2.654536 80.694358 C 3.490448 83.998946 4.834158 89.662839 5.666164 93.494755 C 6.502077 97.330577 7.845786 103.888974 8.677793 108.330247 C 9.513705 112.775426 10.857415 120.372855 11.693327 125.521138 C 12.525334 130.665515 13.869043 139.466032 14.704956 145.430697 C 15.540868 151.395362 16.880672 161.598181 17.716584 168.508129 C 18.552496 175.418078 19.8923 187.238036 20.728212 195.245609 C 21.564125 203.253181 22.903928 216.944176 23.739841 226.221242 C 24.575753 235.502213 25.915557 251.368925 26.751469 262.118602 C 27.587382 272.872186 29.763098 303.711105 29.763098 303.711105 " transform="matrix(1.00003,0,0,-1.00003,51.400072,306.532716)"/>
<path style="fill-rule:nonzero;fill:rgb(100%,0%,0%);fill-opacity:1;stroke-width:0.3985;stroke-linecap:butt;stroke-linejoin:miter;stroke:rgb(100%,0%,0%);stroke-opacity:1;stroke-miterlimit:10;" d="M -12.677035 35.433997 C -12.677035 36.258191 -13.34889 36.926139 -14.173084 36.926139 C -14.997278 36.926139 -15.669133 36.258191 -15.669133 35.433997 C -15.669133 34.609803 -14.997278 33.937948 -14.173084 33.937948 C -13.34889 33.937948 -12.677035 34.609803 -12.677035 35.433997 Z M -12.677035 35.433997 " transform="matrix(1.00003,0,0,-1.00003,51.400072,306.532716)"/>
<path style="fill-rule:nonzero;fill:rgb(100%,0%,0%);fill-opacity:1;stroke-width:0.3985;stroke-linecap:butt;stroke-linejoin:miter;stroke:rgb(100%,0%,0%);stroke-opacity:1;stroke-miterlimit:10;" d="M 1.494414 70.866527 C 1.494414 71.690722 0.826466 72.362576 -0.00163439 72.362576 C -0.825828 72.362576 -1.493777 71.690722 -1.493777 70.866527 C -1.493777 70.042333 -0.825828 69.374385 -0.00163439 69.374385 C 0.826466 69.374385 1.494414 70.042333 1.494414 70.866527 Z M 1.494414 70.866527 " transform="matrix(1.00003,0,0,-1.00003,51.400072,306.532716)"/>
<path style="fill-rule:nonzero;fill:rgb(100%,0%,0%);fill-opacity:1;stroke-width:0.3985;stroke-linecap:butt;stroke-linejoin:miter;stroke:rgb(100%,0%,0%);stroke-opacity:1;stroke-miterlimit:10;" d="M 15.665864 141.735495 C 15.665864 142.559689 14.997916 143.227638 14.173722 143.227638 C 13.349528 143.227638 12.677673 142.559689 12.677673 141.735495 C 12.677673 140.907395 13.349528 140.239446 14.173722 140.239446 C 14.997916 140.239446 15.665864 140.907395 15.665864 141.735495 Z M 15.665864 141.735495 " transform="matrix(1.00003,0,0,-1.00003,51.400072,306.532716)"/>
<path style="fill-rule:nonzero;fill:rgb(100%,0%,0%);fill-opacity:1;stroke-width:0.3985;stroke-linecap:butt;stroke-linejoin:miter;stroke:rgb(100%,0%,0%);stroke-opacity:1;stroke-miterlimit:10;" d="M 29.84122 283.469524 C 29.84122 284.293718 29.173272 284.961667 28.345171 284.961667 C 27.520977 284.961667 26.853029 284.293718 26.853029 283.469524 C 26.853029 282.641424 27.520977 281.973476 28.345171 281.973476 C 29.173272 281.973476 29.84122 282.641424 29.84122 283.469524 Z M 29.84122 283.469524 " transform="matrix(1.00003,0,0,-1.00003,51.400072,306.532716)"/>
</g>
</svg>
