<?xml version="1.0" encoding="UTF-8"?>
<svg xmlns="http://www.w3.org/2000/svg" xmlns:xlink="http://www.w3.org/1999/xlink" width="202pt" height="173pt" viewBox="0 0 202 173" version="1.1">
<g id="surface1">
<path style="fill:none;stroke-width:0.3985;stroke-linecap:butt;stroke-linejoin:miter;stroke:rgb(0%,0%,0%);stroke-opacity:1;stroke-dasharray:0.3985,1.99255;stroke-miterlimit:10;" d="M -70.868201 -28.348686 L 127.55944 -28.348686 M -70.868201 -0.0018803 L 127.55944 -0.0018803 M -70.868201 28.344926 L 127.55944 28.344926 M -70.868201 56.691731 L 127.55944 56.691731 M -70.868201 85.038537 L 127.55944 85.038537 M -70.868201 113.385343 L 127.55944 113.385343 M -56.692845 -42.520136 L -56.692845 127.560699 M -28.346039 -42.520136 L -28.346039 127.560699 M 0.000767077 -42.520136 L 0.000767077 127.560699 M 28.347573 -42.520136 L 28.347573 127.560699 M 56.694379 -42.520136 L 56.694379 127.560699 M 85.041185 -42.520136 L 85.041185 127.560699 M 113.38799 -42.520136 L 113.38799 127.560699 " transform="matrix(1.00003,0,0,-1.00003,72.557827,129.361401)"/>
<path style="fill:none;stroke-width:0.3985;stroke-linecap:butt;stroke-linejoin:miter;stroke:rgb(0%,0%,0%);stroke-opacity:1;stroke-miterlimit:10;" d="M -67.282371 -0.0018803 L 123.97361 -0.0018803 " transform="matrix(1.00003,0,0,-1.00003,72.557827,129.361401)"/>
<path style=" stroke:none;fill-rule:nonzero;fill:rgb(0%,0%,0%);fill-opacity:1;" d="M 1.6875 129.363281 C 2.75 129.5625 4.476563 130.160156 5.675781 130.855469 L 5.675781 127.867188 C 4.476563 128.5625 2.75 129.164063 1.6875 129.363281 "/>
<path style=" stroke:none;fill-rule:nonzero;fill:rgb(0%,0%,0%);fill-opacity:1;" d="M 200.121094 129.363281 C 199.058594 129.164063 197.332031 128.5625 196.136719 127.867188 L 196.136719 130.855469 C 197.332031 130.160156 199.058594 129.5625 200.121094 129.363281 "/>
<path style="fill:none;stroke-width:0.3985;stroke-linecap:butt;stroke-linejoin:miter;stroke:rgb(0%,0%,0%);stroke-opacity:1;stroke-miterlimit:10;" d="M 0.000767077 -38.934306 L 0.000767077 123.974869 " transform="matrix(1.00003,0,0,-1.00003,72.557827,129.361401)"/>
<path style=" stroke:none;fill-rule:nonzero;fill:rgb(0%,0%,0%);fill-opacity:1;" d="M 72.558594 171.882813 C 72.757813 170.820313 73.355469 169.09375 74.050781 167.898438 L 71.0625 167.898438 C 71.761719 169.09375 72.359375 170.820313 72.558594 171.882813 "/>
<path style=" stroke:none;fill-rule:nonzero;fill:rgb(0%,0%,0%);fill-opacity:1;" d="M 72.558594 1.796875 C 72.359375 2.859375 71.761719 4.585938 71.0625 5.78125 L 74.050781 5.78125 C 73.355469 4.585938 72.757813 2.859375 72.558594 1.796875 "/>
<path style="fill:none;stroke-width:0.79701;stroke-linecap:butt;stroke-linejoin:miter;stroke:rgb(0%,0%,0%);stroke-opacity:1;stroke-miterlimit:10;" d="M -56.692845 -28.348686 L -55.513193 -25.672985 L -54.33354 -22.423083 L -53.149982 -18.657571 L -51.97033 -14.435041 L -50.790678 -9.825804 L -49.60712 -4.88064 L -48.427468 0.337953 L -47.247815 5.763572 L -46.064257 11.337623 L -44.884605 16.99761 L -43.704953 22.684939 L -42.525301 28.329301 L -41.341743 33.879916 L -40.162091 39.274285 L -38.982438 44.442099 L -37.79888 49.332577 L -36.619228 53.87541 L -35.439576 58.004192 L -34.256018 61.679863 L -33.076366 64.8243 L -31.896713 67.371099 L -30.717061 69.269479 L -29.533503 70.453037 L -28.353851 70.867087 " transform="matrix(1.00003,0,0,-1.00003,72.557827,129.361401)"/>
<path style="fill:none;stroke-width:0.79701;stroke-linecap:butt;stroke-linejoin:miter;stroke:rgb(0%,0%,0%);stroke-opacity:1;stroke-miterlimit:10;" d="M -28.346039 70.867087 L -25.982828 70.65225 L -23.623524 70.031175 L -21.260314 69.039017 L -18.897103 67.718744 L -16.537799 66.101605 L -14.174589 64.222755 L -11.811379 62.125162 L -9.448168 59.843981 L -7.088864 57.414366 L -4.725654 54.87538 L -2.362443 52.262177 L -0.00313906 49.609913 L 2.360071 46.957648 L 4.723282 44.344446 L 7.082586 41.801553 L 9.445796 39.371938 L 11.809007 37.090757 L 14.172217 34.993164 L 16.531521 33.11822 L 18.894732 31.497175 L 21.257942 30.176902 L 23.617246 29.184744 L 25.980456 28.563669 L 28.343667 28.344926 " transform="matrix(1.00003,0,0,-1.00003,72.557827,129.361401)"/>
<path style="fill:none;stroke-width:0.79701;stroke-linecap:butt;stroke-linejoin:miter;stroke:rgb(0%,0%,0%);stroke-opacity:1;stroke-miterlimit:10;" d="M 28.347573 28.344926 L 29.527225 28.489452 L 30.706877 28.903503 L 31.890435 29.563639 L 33.070087 30.442519 L 34.24974 31.524518 L 35.433298 32.77448 L 36.61295 34.172876 L 37.792602 35.692361 L 38.97616 37.3095 L 40.155812 39.004762 L 41.335465 40.746897 L 42.515117 42.516375 L 43.698675 44.281947 L 44.878327 46.024083 L 46.057979 47.719344 L 47.241537 49.336483 L 48.421189 50.859875 L 49.600842 52.258271 L 50.7844 53.508233 L 51.964052 54.586326 L 53.143704 55.469112 L 54.323356 56.133154 L 55.506914 56.547204 L 56.686567 56.691731 " transform="matrix(1.00003,0,0,-1.00003,72.557827,129.361401)"/>
<path style="fill:none;stroke-width:0.79701;stroke-linecap:butt;stroke-linejoin:miter;stroke:rgb(0%,0%,0%);stroke-opacity:1;stroke-miterlimit:10;" d="M 56.694379 56.691731 L 57.874031 56.746417 L 59.053683 56.906569 L 60.237241 57.191716 L 61.416893 57.613579 L 62.596545 58.179968 L 63.780104 58.906509 L 64.959756 59.808825 L 66.139408 60.890824 L 67.322966 62.172036 L 68.502618 63.660272 L 69.68227 65.371159 L 70.861922 67.316413 L 72.045481 69.507753 L 73.225133 71.956898 L 74.404785 74.675567 L 75.588343 77.679383 L 76.767995 80.976159 L 77.947647 84.58152 L 79.131206 88.507183 L 80.310858 92.760962 L 81.49051 97.362386 L 82.670162 102.319269 L 83.85372 107.647234 L 85.033372 113.354094 " transform="matrix(1.00003,0,0,-1.00003,72.557827,129.361401)"/>
<path style="fill:none;stroke-width:0.79701;stroke-linecap:butt;stroke-linejoin:miter;stroke:rgb(0%,0%,0%);stroke-opacity:1;stroke-miterlimit:10;" d="M 85.041185 113.385343 L 86.220837 107.58083 L 87.400489 101.971623 L 88.584047 96.561629 L 89.763699 91.343036 L 90.943351 86.327561 L 92.12691 81.503487 L 93.306562 76.878626 L 94.486214 72.449071 L 95.669772 68.218729 L 96.849424 64.183694 L 98.029076 60.343966 L 99.208728 56.70345 L 100.392287 53.258241 L 101.571939 50.012244 L 102.751591 46.961555 L 103.935149 44.106171 L 105.114801 41.446095 L 106.294453 38.989137 L 107.478012 36.72358 L 108.657664 34.65333 L 109.837316 32.786199 L 111.016968 31.110468 L 112.200526 29.633949 L 113.380178 28.352738 " transform="matrix(1.00003,0,0,-1.00003,72.557827,129.361401)"/>
</g>
</svg>
