<?xml version="1.0" encoding="UTF-8"?>
<svg xmlns="http://www.w3.org/2000/svg" xmlns:xlink="http://www.w3.org/1999/xlink" width="88pt" height="131pt" viewBox="0 0 88 131" version="1.1">
<g id="surface1">
<path style="fill:none;stroke-width:0.3985;stroke-linecap:butt;stroke-linejoin:miter;stroke:rgb(0%,0%,0%);stroke-opacity:1;stroke-miterlimit:10;" d="M -0.0000842475 -17.673178 L -0.0000842475 102.713221 " transform="matrix(1.00003,0,0,-1.0001,37.226647,108.110211)"/>
<path style=" stroke:none;fill-rule:nonzero;fill:rgb(0%,0%,0%);fill-opacity:1;" d="M 37.226563 129.371094 C 37.425781 128.308594 38.023438 126.582031 38.722656 125.386719 L 35.730469 125.386719 C 36.429688 126.582031 37.027344 128.308594 37.226563 129.371094 "/>
<path style=" stroke:none;fill-rule:nonzero;fill:rgb(0%,0%,0%);fill-opacity:1;" d="M 37.226563 1.800781 C 37.027344 2.863281 36.429688 4.589844 35.730469 5.785156 L 38.722656 5.785156 C 38.023438 4.589844 37.425781 2.863281 37.226563 1.800781 "/>
<path style="fill:none;stroke-width:0.3985;stroke-linecap:butt;stroke-linejoin:miter;stroke:rgb(0%,0%,0%);stroke-opacity:1;stroke-miterlimit:10;" d="M -31.846785 0.000836116 L 46.021973 0.000836116 " transform="matrix(1.00003,0,0,-1.0001,37.226647,108.110211)"/>
<path style=" stroke:none;fill-rule:nonzero;fill:rgb(0%,0%,0%);fill-opacity:1;" d="M 1.792969 108.109375 C 2.855469 108.308594 4.582031 108.90625 5.777344 109.605469 L 5.777344 106.617188 C 4.582031 107.3125 2.855469 107.910156 1.792969 108.109375 "/>
<path style=" stroke:none;fill-rule:nonzero;fill:rgb(0%,0%,0%);fill-opacity:1;" d="M 86.835938 108.109375 C 85.773438 107.910156 84.046875 107.3125 82.851563 106.617188 L 82.851563 109.605469 C 84.046875 108.90625 85.773438 108.308594 86.835938 108.109375 "/>
<path style="fill:none;stroke-width:0.79701;stroke-linecap:butt;stroke-linejoin:miter;stroke:rgb(0%,0%,100%);stroke-opacity:1;stroke-miterlimit:10;" d="M -17.718303 101.533652 C -17.718303 101.533652 -15.901951 97.854332 -15.206659 96.491187 C -14.511368 95.124136 -13.394214 92.995443 -12.698922 91.698698 C -11.999724 90.401952 -10.88257 88.374811 -10.187279 87.14056 C -9.491987 85.910214 -8.374833 83.984625 -7.675635 82.812867 C -6.980344 81.645015 -5.86319 79.817073 -5.167898 78.703903 C -4.472606 77.590733 -3.355452 75.852626 -2.656255 74.794138 C -1.960963 73.73565 -0.843809 72.083472 -0.148517 71.079666 C 0.546774 70.07586 1.663928 68.521328 2.363126 67.568298 C 3.058418 66.611363 4.175572 65.115418 4.870863 64.205353 C 5.566155 63.295288 6.683309 61.881367 7.382507 61.018172 C 8.077798 60.154977 9.194952 58.811361 9.890244 57.991131 C 10.589442 57.1709 11.70269 55.885873 12.401887 55.104701 C 13.097179 54.323529 14.214333 53.108807 14.909625 52.366693 C 15.608822 51.628486 16.72207 50.472351 17.421268 49.769297 C 18.11656 49.066242 19.233714 47.968696 19.929005 47.300794 C 20.628203 46.632892 21.745357 45.582215 22.440649 44.94556 C 23.13594 44.312811 24.253094 43.316817 24.948386 42.715315 C 25.647584 42.109906 26.764738 41.168594 27.460029 40.594433 C 28.155321 40.020272 29.272475 39.121924 29.967767 38.575104 C 30.666964 38.028283 31.784118 37.180712 32.47941 36.661233 C 33.174702 36.141753 34.291856 35.33324 34.987147 34.837196 C 35.686345 34.345058 36.803499 33.579509 37.498791 33.110806 C 38.194082 32.642103 39.311236 31.907802 40.010434 31.46644 C 40.705726 31.021172 42.518171 29.904096 42.518171 29.904096 " transform="matrix(1.00003,0,0,-1.0001,37.226647,108.110211)"/>
<path style="fill-rule:nonzero;fill:rgb(100%,0%,0%);fill-opacity:1;stroke-width:0.3985;stroke-linecap:butt;stroke-linejoin:miter;stroke:rgb(100%,0%,0%);stroke-opacity:1;stroke-miterlimit:10;" d="M -12.679391 94.491387 C -12.679391 95.319429 -13.34734 95.987331 -14.171534 95.987331 C -14.999634 95.987331 -15.667583 95.319429 -15.667583 94.491387 C -15.667583 93.667251 -14.999634 92.999349 -14.171534 92.999349 C -13.34734 92.999349 -12.679391 93.667251 -12.679391 94.491387 Z M -12.679391 94.491387 " transform="matrix(1.00003,0,0,-1.0001,37.226647,108.110211)"/>
<path style="fill-rule:nonzero;fill:rgb(100%,0%,0%);fill-opacity:1;stroke-width:0.3985;stroke-linecap:butt;stroke-linejoin:miter;stroke:rgb(100%,0%,0%);stroke-opacity:1;stroke-miterlimit:10;" d="M 1.495965 70.868749 C 1.495965 71.692886 0.82411 72.360788 -0.0000842475 72.360788 C -0.824278 72.360788 -1.496133 71.692886 -1.496133 70.868749 C -1.496133 70.040707 -0.824278 69.372805 -0.0000842475 69.372805 C 0.82411 69.372805 1.495965 70.040707 1.495965 70.868749 Z M 1.495965 70.868749 " transform="matrix(1.00003,0,0,-1.0001,37.226647,108.110211)"/>
<path style="fill-rule:nonzero;fill:rgb(100%,0%,0%);fill-opacity:1;stroke-width:0.3985;stroke-linecap:butt;stroke-linejoin:miter;stroke:rgb(100%,0%,0%);stroke-opacity:1;stroke-miterlimit:10;" d="M 15.667414 53.151771 C 15.667414 53.975907 14.999466 54.643809 14.175272 54.643809 C 13.347172 54.643809 12.679223 53.975907 12.679223 53.151771 C 12.679223 52.323729 13.347172 51.655827 14.175272 51.655827 C 14.999466 51.655827 15.667414 52.323729 15.667414 53.151771 Z M 15.667414 53.151771 " transform="matrix(1.00003,0,0,-1.0001,37.226647,108.110211)"/>
<path style="fill-rule:nonzero;fill:rgb(100%,0%,0%);fill-opacity:1;stroke-width:0.3985;stroke-linecap:butt;stroke-linejoin:miter;stroke:rgb(100%,0%,0%);stroke-opacity:1;stroke-miterlimit:10;" d="M 29.84277 39.864037 C 29.84277 40.688174 29.170916 41.356076 28.346722 41.356076 C 27.522528 41.356076 26.850673 40.688174 26.850673 39.864037 C 26.850673 39.035995 27.522528 38.368093 28.346722 38.368093 C 29.170916 38.368093 29.84277 39.035995 29.84277 39.864037 Z M 29.84277 39.864037 " transform="matrix(1.00003,0,0,-1.0001,37.226647,108.110211)"/>
</g>
</svg>
