<?xml version="1.0" encoding="UTF-8"?>
<svg xmlns="http://www.w3.org/2000/svg" xmlns:xlink="http://www.w3.org/1999/xlink" width="202pt" height="202pt" viewBox="0 0 202 202" version="1.1">
<g id="surface1">
<path style="fill:none;stroke-width:0.3985;stroke-linecap:butt;stroke-linejoin:miter;stroke:rgb(0%,0%,0%);stroke-opacity:1;stroke-miterlimit:10;" d="M -53.105273 0.00066987 L 138.148877 0.00066987 " transform="matrix(1.00006,0,0,-1.00003,58.385803,143.535826)"/>
<path style=" stroke:none;fill-rule:nonzero;fill:rgb(0%,0%,0%);fill-opacity:1;" d="M 1.6875 143.535156 C 2.75 143.734375 4.476563 144.332031 5.675781 145.03125 L 5.675781 142.042969 C 4.476563 142.738281 2.75 143.335938 1.6875 143.535156 "/>
<path style=" stroke:none;fill-rule:nonzero;fill:rgb(0%,0%,0%);fill-opacity:1;" d="M 200.128906 143.535156 C 199.066406 143.335938 197.339844 142.738281 196.144531 142.042969 L 196.144531 145.03125 C 197.339844 144.332031 199.066406 143.734375 200.128906 143.535156 "/>
<path style="fill:none;stroke-width:0.3985;stroke-linecap:butt;stroke-linejoin:miter;stroke:rgb(0%,0%,0%);stroke-opacity:1;stroke-miterlimit:10;" d="M 0.000915775 -53.107112 L 0.000915775 138.148869 " transform="matrix(1.00006,0,0,-1.00003,58.385803,143.535826)"/>
<path style=" stroke:none;fill-rule:nonzero;fill:rgb(0%,0%,0%);fill-opacity:1;" d="M 58.386719 200.230469 C 58.585938 199.167969 59.183594 197.441406 59.878906 196.246094 L 56.890625 196.246094 C 57.589844 197.441406 58.1875 199.167969 58.386719 200.230469 "/>
<path style=" stroke:none;fill-rule:nonzero;fill:rgb(0%,0%,0%);fill-opacity:1;" d="M 58.386719 1.796875 C 58.1875 2.859375 57.589844 4.585938 56.890625 5.78125 L 59.878906 5.78125 C 59.183594 4.585938 58.585938 2.859375 58.386719 1.796875 "/>
<path style="fill:none;stroke-width:0.3985;stroke-linecap:butt;stroke-linejoin:miter;stroke:rgb(0%,0%,0%);stroke-opacity:1;stroke-dasharray:0.3985,1.99255;stroke-miterlimit:10;" d="M -42.51997 -28.346136 L 127.559668 -28.346136 M -42.51997 0.00066987 L 127.559668 0.00066987 M -42.51997 28.347476 L 127.559668 28.347476 M -42.51997 56.694282 L 127.559668 56.694282 M -42.51997 85.041087 L 127.559668 85.041087 M -42.51997 113.387893 L 127.559668 113.387893 M -28.34504 -42.521492 L -28.34504 127.559343 M 0.000915775 -42.521492 L 0.000915775 127.559343 M 28.346871 -42.521492 L 28.346871 127.559343 M 56.692827 -42.521492 L 56.692827 127.559343 M 85.038782 -42.521492 L 85.038782 127.559343 M 113.388644 -42.521492 L 113.388644 127.559343 " transform="matrix(1.00006,0,0,-1.00003,58.385803,143.535826)"/>
<path style="fill:none;stroke-width:0.79701;stroke-linecap:butt;stroke-linejoin:miter;stroke:rgb(0%,0%,0%);stroke-opacity:1;stroke-miterlimit:10;" d="M 0.000915775 28.347476 L 1.180532 29.128702 L 2.360149 30.273199 L 3.543672 31.749717 L 4.723289 33.527008 L 5.902905 35.577728 L 7.086428 37.866721 L 8.266045 40.36274 L 9.445662 43.038441 L 10.629184 45.862575 L 11.808801 48.803893 L 12.988418 51.831146 L 14.168034 54.913085 L 15.351557 58.022367 L 16.531174 61.11993 L 17.710791 64.186244 L 18.894313 67.182248 L 20.07393 70.080599 L 21.253547 72.850047 L 22.43707 75.459344 L 23.616686 77.87724 L 24.796303 80.076393 L 25.979826 82.021647 L 27.159443 83.685659 L 28.339059 85.033275 " transform="matrix(1.00006,0,0,-1.00003,58.385803,143.535826)"/>
<path style="fill:none;stroke-width:0.79701;stroke-linecap:butt;stroke-linejoin:miter;stroke:rgb(0%,0%,0%);stroke-opacity:1;stroke-miterlimit:10;" d="M 28.346871 85.041087 L 29.526488 86.232458 L 30.710011 87.443359 L 31.889627 88.665979 L 33.069244 89.89641 L 34.252767 91.122936 L 35.432384 92.345556 L 36.612 93.556457 L 37.791617 94.747827 L 38.97514 95.915761 L 40.154757 97.052446 L 41.334373 98.153975 L 42.517896 99.212537 L 43.697513 100.22032 L 44.877129 101.16951 L 46.060652 102.064014 L 47.240269 102.884302 L 48.419886 103.63428 L 49.603408 104.306134 L 50.783025 104.888148 L 51.962642 105.380321 L 53.142259 105.770934 L 54.325781 106.059988 L 55.505398 106.23967 L 56.685015 106.302168 " transform="matrix(1.00006,0,0,-1.00003,58.385803,143.535826)"/>
<path style="fill:none;stroke-width:0.79701;stroke-linecap:butt;stroke-linejoin:miter;stroke:rgb(0%,0%,0%);stroke-opacity:1;stroke-miterlimit:10;" d="M 56.692827 106.302168 L 57.876349 105.888118 L 59.055966 104.681123 L 60.235583 102.735869 L 61.4152 100.142197 L 62.598722 96.950886 L 63.778339 93.24006 L 64.957956 89.080029 L 66.141479 84.525478 L 67.321095 79.658436 L 68.500712 74.53359 L 69.684235 69.225156 L 70.863851 63.795631 L 72.043468 58.319233 L 73.226991 52.870178 L 74.406608 47.499245 L 75.586224 42.284558 L 76.765841 37.288614 L 77.949364 32.573911 L 79.128981 28.230292 L 80.308597 24.304628 L 81.49212 20.867231 L 82.671737 17.992318 L 83.851353 15.734573 L 85.034876 14.179932 " transform="matrix(1.00006,0,0,-1.00003,58.385803,143.535826)"/>
<path style="fill:none;stroke-width:0.79701;stroke-linecap:butt;stroke-linejoin:miter;stroke:rgb(0%,0%,0%);stroke-opacity:1;stroke-miterlimit:10;" d="M 85.038782 14.17212 L 86.222305 12.9495 L 87.401922 11.633133 L 88.581538 10.246456 L 89.765061 8.797281 L 90.944678 7.297326 L 92.124295 5.75831 L 93.307817 4.199763 L 94.487434 2.629497 L 95.667051 1.055326 L 96.850574 -0.503221 L 98.03019 -2.038331 L 99.209807 -3.538286 L 100.389424 -4.987462 L 101.572946 -6.374139 L 102.752563 -7.690506 L 103.93218 -8.917031 L 105.115703 -10.045904 L 106.295319 -11.069311 L 107.474936 -11.963815 L 108.658459 -12.725511 L 109.838076 -13.338774 L 111.017692 -13.791885 L 112.201215 -14.077033 L 113.380832 -14.174686 " transform="matrix(1.00006,0,0,-1.00003,58.385803,143.535826)"/>
<path style="fill:none;stroke-width:0.79701;stroke-linecap:butt;stroke-linejoin:miter;stroke:rgb(0%,0%,0%);stroke-opacity:1;stroke-miterlimit:10;" d="M 113.388644 -14.174686 L 114.56826 -14.198123 L 115.747877 -14.272339 L 116.9314 -14.39343 L 118.111017 -14.565299 L 119.290633 -14.787949 L 120.47025 -15.057472 L 121.653773 -15.377775 L 122.83339 -15.748858 L 124.013006 -16.166814 L 125.196529 -16.631644 L 126.376146 -17.151159 L 127.555762 -17.713642 L 128.739285 -18.330811 L 129.918902 -18.994854 L 131.098519 -19.70577 L 132.282041 -20.467466 L 133.461658 -21.279942 L 134.641275 -22.143197 L 135.824798 -23.053326 L 137.004414 -24.010329 L 138.184031 -25.018111 L 139.363648 -26.076673 L 140.54717 -27.182108 L 141.726787 -28.338324 " transform="matrix(1.00006,0,0,-1.00003,58.385803,143.535826)"/>
</g>
</svg>
