<?xml version="1.0" encoding="UTF-8"?>
<svg xmlns="http://www.w3.org/2000/svg" xmlns:xlink="http://www.w3.org/1999/xlink" width="117pt" height="145pt" viewBox="0 0 117 145" version="1.1">
<g id="surface1">
<path style="fill:none;stroke-width:0.3985;stroke-linecap:butt;stroke-linejoin:miter;stroke:rgb(0%,0%,0%);stroke-opacity:1;stroke-miterlimit:10;" d="M 0.0004375 -17.674927 L 0.0004375 116.888657 " transform="matrix(1,0,0,-1.00005,51.398,122.277314)"/>
<path style=" stroke:none;fill-rule:nonzero;fill:rgb(0%,0%,0%);fill-opacity:1;" d="M 51.398438 143.539063 C 51.597656 142.476563 52.195313 140.75 52.890625 139.554688 L 49.902344 139.554688 C 50.601563 140.75 51.199219 142.476563 51.398438 143.539063 "/>
<path style=" stroke:none;fill-rule:nonzero;fill:rgb(0%,0%,0%);fill-opacity:1;" d="M 51.398438 1.796875 C 51.199219 2.859375 50.601563 4.585938 49.902344 5.78125 L 52.890625 5.78125 C 52.195313 4.585938 51.597656 2.859375 51.398438 1.796875 "/>
<path style="fill:none;stroke-width:0.3985;stroke-linecap:butt;stroke-linejoin:miter;stroke:rgb(0%,0%,0%);stroke-opacity:1;stroke-miterlimit:10;" d="M -46.019094 -0.0000298485 L 60.191844 -0.0000298485 " transform="matrix(1,0,0,-1.00005,51.398,122.277314)"/>
<path style=" stroke:none;fill-rule:nonzero;fill:rgb(0%,0%,0%);fill-opacity:1;" d="M 1.792969 122.277344 C 2.855469 122.476563 4.582031 123.074219 5.777344 123.773438 L 5.777344 120.78125 C 4.582031 121.480469 2.855469 122.078125 1.792969 122.277344 "/>
<path style=" stroke:none;fill-rule:nonzero;fill:rgb(0%,0%,0%);fill-opacity:1;" d="M 115.179688 122.277344 C 114.117188 122.078125 112.390625 121.480469 111.191406 120.78125 L 111.191406 123.773438 C 112.390625 123.074219 114.117188 122.476563 115.179688 122.277344 "/>
<path style="fill:none;stroke-width:0.79701;stroke-linecap:butt;stroke-linejoin:miter;stroke:rgb(0%,0%,100%);stroke-opacity:1;stroke-miterlimit:10;" d="M -42.519094 53.262932 C -42.519094 53.262932 -39.319875 54.419124 -38.089406 54.872227 C -36.862844 55.321423 -34.890187 56.055761 -33.663625 56.524488 C -32.433156 56.989308 -30.4605 57.754895 -29.233937 58.239246 C -28.003469 58.71969 -26.030812 59.500901 -24.80425 59.99697 C -23.573781 60.493039 -21.605031 61.301593 -20.374562 61.80938 C -19.144094 62.321073 -17.175344 63.149156 -15.944875 63.676474 C -14.714406 64.199885 -12.745656 65.059217 -11.515187 65.602159 C -10.288625 66.1451 -8.315969 67.023963 -7.0855 67.582529 C -5.858937 68.141094 -3.886281 69.055111 -2.655812 69.629301 C -1.42925 70.203491 0.543406 71.12532 1.769969 71.715134 C 3.000438 72.304949 4.973094 73.269744 6.199656 73.882995 C 7.430125 74.492339 9.402781 75.484477 10.629344 76.113352 C 11.859813 76.742227 13.828563 77.769519 15.059031 78.414018 C 16.2895 79.062423 18.25825 80.117058 19.488719 80.784993 C 20.719188 81.452929 22.687938 82.538812 23.918406 83.226278 C 25.144969 83.917649 27.117625 85.042593 28.348094 85.749589 C 29.574656 86.456585 31.547313 87.604965 32.777781 88.335397 C 34.004344 89.061923 35.977 90.25327 37.203563 91.003232 C 38.434031 91.757101 40.406688 92.979696 41.63325 93.753095 C 42.863719 94.5304 44.836375 95.792056 46.062938 96.588891 C 47.293406 97.389632 49.262156 98.686442 50.492625 99.506714 C 51.723094 100.330891 53.691844 101.666762 54.922313 102.514376 C 56.152781 103.36199 58.121531 104.740827 59.352 105.615783 C 60.578563 106.486833 63.781688 108.80703 63.781688 108.80703 " transform="matrix(1,0,0,-1.00005,51.398,122.277314)"/>
<path style="fill-rule:nonzero;fill:rgb(100%,0%,0%);fill-opacity:1;stroke-width:0.3985;stroke-linecap:butt;stroke-linejoin:miter;stroke:rgb(100%,0%,0%);stroke-opacity:1;stroke-miterlimit:10;" d="M -12.67925 64.434248 C -12.67925 65.258426 -13.347219 65.926361 -14.171437 65.926361 C -14.999562 65.926361 -15.667531 65.258426 -15.667531 64.434248 C -15.667531 63.606165 -14.999562 62.938229 -14.171437 62.938229 C -13.347219 62.938229 -12.67925 63.606165 -12.67925 64.434248 Z M -12.67925 64.434248 " transform="matrix(1,0,0,-1.00005,51.398,122.277314)"/>
<path style="fill-rule:nonzero;fill:rgb(100%,0%,0%);fill-opacity:1;stroke-width:0.3985;stroke-linecap:butt;stroke-linejoin:miter;stroke:rgb(100%,0%,0%);stroke-opacity:1;stroke-miterlimit:10;" d="M 1.492625 70.867521 C 1.492625 71.691698 0.824656 72.359633 0.0004375 72.359633 C -0.823781 72.359633 -1.495656 71.691698 -1.495656 70.867521 C -1.495656 70.043343 -0.823781 69.371502 0.0004375 69.371502 C 0.824656 69.371502 1.492625 70.043343 1.492625 70.867521 Z M 1.492625 70.867521 " transform="matrix(1,0,0,-1.00005,51.398,122.277314)"/>
<path style="fill-rule:nonzero;fill:rgb(100%,0%,0%);fill-opacity:1;stroke-width:0.3985;stroke-linecap:butt;stroke-linejoin:miter;stroke:rgb(100%,0%,0%);stroke-opacity:1;stroke-miterlimit:10;" d="M 15.668406 77.953104 C 15.668406 78.781187 15.000438 79.449123 14.172313 79.449123 C 13.348094 79.449123 12.680125 78.781187 12.680125 77.953104 C 12.680125 77.128926 13.348094 76.460991 14.172313 76.460991 C 15.000438 76.460991 15.668406 77.128926 15.668406 77.953104 Z M 15.668406 77.953104 " transform="matrix(1,0,0,-1.00005,51.398,122.277314)"/>
<path style="fill-rule:nonzero;fill:rgb(100%,0%,0%);fill-opacity:1;stroke-width:0.3985;stroke-linecap:butt;stroke-linejoin:miter;stroke:rgb(100%,0%,0%);stroke-opacity:1;stroke-miterlimit:10;" d="M 29.840281 85.749589 C 29.840281 86.573766 29.172313 87.245608 28.348094 87.245608 C 27.519969 87.245608 26.852 86.573766 26.852 85.749589 C 26.852 84.925411 27.519969 84.25357 28.348094 84.25357 C 29.172313 84.25357 29.840281 84.925411 29.840281 85.749589 Z M 29.840281 85.749589 " transform="matrix(1,0,0,-1.00005,51.398,122.277314)"/>
</g>
</svg>
