<?xml version="1.0" encoding="UTF-8"?>
<svg xmlns="http://www.w3.org/2000/svg" xmlns:xlink="http://www.w3.org/1999/xlink" width="117pt" height="119pt" viewBox="0 0 117 119" version="1.1">
<g id="surface1">
<path style="fill:none;stroke-width:0.3985;stroke-linecap:butt;stroke-linejoin:miter;stroke:rgb(0%,0%,0%);stroke-opacity:1;stroke-miterlimit:10;" d="M -24.759094 0.001125 L 81.45575 0.001125 " transform="matrix(1,0,0,-1,30.138,88.673)"/>
<path style=" stroke:none;fill-rule:nonzero;fill:rgb(0%,0%,0%);fill-opacity:1;" d="M 1.792969 88.671875 C 2.855469 88.871094 4.582031 89.46875 5.777344 90.167969 L 5.777344 87.179688 C 4.582031 87.875 2.855469 88.472656 1.792969 88.671875 "/>
<path style=" stroke:none;fill-rule:nonzero;fill:rgb(0%,0%,0%);fill-opacity:1;" d="M 115.179688 88.671875 C 114.117188 88.472656 112.390625 87.875 111.195313 87.179688 L 111.195313 90.167969 C 112.390625 89.46875 114.117188 88.871094 115.179688 88.671875 "/>
<path style="fill:none;stroke-width:0.3985;stroke-linecap:butt;stroke-linejoin:miter;stroke:rgb(0%,0%,0%);stroke-opacity:1;stroke-miterlimit:10;" d="M -0.00128125 -24.760594 L -0.00128125 81.45425 " transform="matrix(1,0,0,-1,30.138,88.673)"/>
<path style=" stroke:none;fill-rule:nonzero;fill:rgb(0%,0%,0%);fill-opacity:1;" d="M 30.136719 117.019531 C 30.335938 115.957031 30.933594 114.230469 31.632813 113.035156 L 28.644531 113.035156 C 29.339844 114.230469 29.9375 115.957031 30.136719 117.019531 "/>
<path style=" stroke:none;fill-rule:nonzero;fill:rgb(0%,0%,0%);fill-opacity:1;" d="M 30.136719 3.632813 C 29.9375 4.695313 29.339844 6.421875 28.644531 7.617188 L 31.632813 7.617188 C 30.933594 6.421875 30.335938 4.695313 30.136719 3.632813 "/>
<path style="fill:none;stroke-width:0.79701;stroke-linecap:butt;stroke-linejoin:miter;stroke:rgb(0%,0%,0%);stroke-opacity:1;stroke-miterlimit:10;" d="M -14.173156 7.087062 L -12.013 7.364406 L -9.848937 7.669094 L -7.688781 8.001125 L -5.528625 8.3605 L -3.364562 8.755031 L -1.204406 9.188625 L 0.95575 9.665187 L 3.115906 10.196437 L 5.279969 10.786281 L 7.440125 11.45425 L 9.600281 12.20425 L 11.764344 13.063625 L 13.9245 14.048 L 16.084656 15.196437 L 18.248719 16.551906 L 20.408875 18.169094 L 22.569031 20.137844 L 24.733094 22.587062 L 26.89325 25.712062 L 29.053406 29.837062 L 31.217469 35.540187 L 33.377625 43.942531 L 35.537781 57.548 L 37.701844 83.356594 " transform="matrix(1,0,0,-1,30.138,88.673)"/>
<path style="fill:none;stroke-width:0.79701;stroke-linecap:butt;stroke-linejoin:miter;stroke:rgb(0%,0%,0%);stroke-opacity:1;stroke-miterlimit:10;" d="M 47.338563 83.376125 L 48.908875 62.880031 L 50.479188 50.477687 L 52.0495 42.157375 L 53.619813 36.192531 L 55.190125 31.708156 L 56.760438 28.212062 L 58.334656 25.411281 L 59.904969 23.114406 L 61.475281 21.196437 L 63.045594 19.575344 L 64.615906 18.184719 L 66.186219 16.977687 L 67.756531 15.919094 L 69.326844 14.9855 L 70.897156 14.153469 L 72.467469 13.415187 L 74.037781 12.743312 L 75.608094 12.14175 L 77.178406 11.590969 L 78.748719 11.087062 L 80.319031 10.626125 L 81.889344 10.20425 L 83.463563 9.809719 L 85.033875 9.450344 " transform="matrix(1,0,0,-1,30.138,88.673)"/>
<path style="fill:none;stroke-width:0.3985;stroke-linecap:butt;stroke-linejoin:miter;stroke:rgb(0%,0%,0%);stroke-opacity:1;stroke-dasharray:2.98883,2.98883;stroke-miterlimit:10;" d="M 42.51825 -28.346531 L 42.51825 87.876125 " transform="matrix(1,0,0,-1,30.138,88.673)"/>
</g>
</svg>
