<?xml version="1.0" encoding="UTF-8"?>
<svg xmlns="http://www.w3.org/2000/svg" xmlns:xlink="http://www.w3.org/1999/xlink" width="145pt" height="145pt" viewBox="0 0 145 145" version="1.1">
<g id="surface1">
<path style="fill:none;stroke-width:0.3985;stroke-linecap:butt;stroke-linejoin:miter;stroke:rgb(0%,0%,0%);stroke-opacity:1;stroke-miterlimit:10;" d="M -0.000610448 -17.674927 L -0.000610448 116.888657 " transform="matrix(1.00002,0,0,-1.00005,51.399048,122.277314)"/>
<path style=" stroke:none;fill-rule:nonzero;fill:rgb(0%,0%,0%);fill-opacity:1;" d="M 51.398438 143.539063 C 51.597656 142.476563 52.195313 140.75 52.894531 139.554688 L 49.90625 139.554688 C 50.601563 140.75 51.199219 142.476563 51.398438 143.539063 "/>
<path style=" stroke:none;fill-rule:nonzero;fill:rgb(0%,0%,0%);fill-opacity:1;" d="M 51.398438 1.796875 C 51.199219 2.859375 50.601563 4.585938 49.90625 5.78125 L 52.894531 5.78125 C 52.195313 4.585938 51.597656 2.859375 51.398438 1.796875 "/>
<path style="fill:none;stroke-width:0.3985;stroke-linecap:butt;stroke-linejoin:miter;stroke:rgb(0%,0%,0%);stroke-opacity:1;stroke-miterlimit:10;" d="M -46.019221 -0.0000298485 L 88.540587 -0.0000298485 " transform="matrix(1.00002,0,0,-1.00005,51.399048,122.277314)"/>
<path style=" stroke:none;fill-rule:nonzero;fill:rgb(0%,0%,0%);fill-opacity:1;" d="M 1.792969 122.277344 C 2.855469 122.476563 4.582031 123.074219 5.777344 123.773438 L 5.777344 120.78125 C 4.582031 121.480469 2.855469 122.078125 1.792969 122.277344 "/>
<path style=" stroke:none;fill-rule:nonzero;fill:rgb(0%,0%,0%);fill-opacity:1;" d="M 143.527344 122.277344 C 142.464844 122.078125 140.738281 121.480469 139.542969 120.78125 L 139.542969 123.773438 C 140.738281 123.074219 142.464844 122.476563 143.527344 122.277344 "/>
<path style="fill:none;stroke-width:0.79701;stroke-linecap:butt;stroke-linejoin:miter;stroke:rgb(0%,0%,100%);stroke-opacity:1;stroke-miterlimit:10;" d="M -14.172202 88.589291 C -14.172202 88.589291 -11.828499 85.36289 -10.926173 84.167637 C -10.023847 82.972384 -8.578564 81.109196 -7.676238 79.972534 C -6.777819 78.835872 -5.332535 77.062523 -4.430209 75.984452 C -3.527884 74.906381 -2.0826 73.218965 -1.180274 72.195579 C -0.281855 71.176099 1.163429 69.586335 2.065754 68.613727 C 2.96808 67.645025 4.413364 66.117758 5.315689 65.192023 C 6.214109 64.266288 7.659393 62.817142 8.561718 61.938279 C 9.464044 61.059417 10.909328 59.688392 11.811653 58.852496 C 12.710073 58.020507 14.155356 56.715884 15.057682 55.919049 C 15.960008 55.12612 17.405291 53.880089 18.307617 53.12622 C 19.206037 52.372352 20.65132 51.200535 21.553646 50.481821 C 22.455972 49.767013 23.901255 48.649881 24.803581 47.966322 C 25.702 47.286668 27.147284 46.216409 28.04961 45.57191 C 28.951936 44.923505 30.397219 43.915743 31.295639 43.302493 C 32.197964 42.689242 33.643248 41.724446 34.545574 41.142444 C 35.447899 40.556536 36.893183 39.646425 37.791602 39.091766 C 38.693928 38.537106 40.139212 37.669962 41.041537 37.142644 C 41.943863 36.615327 43.389147 35.787243 44.287566 35.287268 C 45.189892 34.783387 46.635176 34.006082 47.537501 33.529544 C 48.439827 33.053005 49.885111 32.306949 50.78353 31.853846 C 51.685856 31.400744 53.131139 30.697654 54.033465 30.267988 C 54.935791 29.838322 56.381074 29.166481 57.279494 28.756345 C 58.18182 28.350115 59.627103 27.713428 60.529429 27.326729 C 61.431755 26.936123 63.775458 25.963516 63.775458 25.963516 " transform="matrix(1.00002,0,0,-1.00005,51.399048,122.277314)"/>
<path style="fill-rule:nonzero;fill:rgb(100%,0%,0%);fill-opacity:1;stroke-width:0.3985;stroke-linecap:butt;stroke-linejoin:miter;stroke:rgb(100%,0%,0%);stroke-opacity:1;stroke-miterlimit:10;" d="M 1.495453 70.867521 C 1.495453 71.691698 0.823592 72.359633 -0.000610448 72.359633 C -0.824813 72.359633 -1.492768 71.691698 -1.492768 70.867521 C -1.492768 70.043343 -0.824813 69.371502 -0.000610448 69.371502 C 0.823592 69.371502 1.495453 70.043343 1.495453 70.867521 Z M 1.495453 70.867521 " transform="matrix(1.00002,0,0,-1.00005,51.399048,122.277314)"/>
<path style="fill-rule:nonzero;fill:rgb(100%,0%,0%);fill-opacity:1;stroke-width:0.3985;stroke-linecap:butt;stroke-linejoin:miter;stroke:rgb(100%,0%,0%);stroke-opacity:1;stroke-miterlimit:10;" d="M 15.667045 56.692448 C 15.667045 57.520532 14.99909 58.188467 14.174887 58.188467 C 13.346779 58.188467 12.678823 57.520532 12.678823 56.692448 C 12.678823 55.86827 13.346779 55.200335 14.174887 55.200335 C 14.99909 55.200335 15.667045 55.86827 15.667045 56.692448 Z M 15.667045 56.692448 " transform="matrix(1.00002,0,0,-1.00005,51.399048,122.277314)"/>
<path style="fill-rule:nonzero;fill:rgb(100%,0%,0%);fill-opacity:1;stroke-width:0.3985;stroke-linecap:butt;stroke-linejoin:miter;stroke:rgb(100%,0%,0%);stroke-opacity:1;stroke-miterlimit:10;" d="M 29.842543 45.353171 C 29.842543 46.181255 29.170681 46.84919 28.346479 46.84919 C 27.522277 46.84919 26.854321 46.181255 26.854321 45.353171 C 26.854321 44.528994 27.522277 43.861058 28.346479 43.861058 C 29.170681 43.861058 29.842543 44.528994 29.842543 45.353171 Z M 29.842543 45.353171 " transform="matrix(1.00002,0,0,-1.00005,51.399048,122.277314)"/>
<path style="fill-rule:nonzero;fill:rgb(100%,0%,0%);fill-opacity:1;stroke-width:0.3985;stroke-linecap:butt;stroke-linejoin:miter;stroke:rgb(100%,0%,0%);stroke-opacity:1;stroke-miterlimit:10;" d="M 44.014134 36.283312 C 44.014134 37.10749 43.346179 37.779331 42.521977 37.779331 C 41.693868 37.779331 41.025913 37.10749 41.025913 36.283312 C 41.025913 35.459135 41.693868 34.787293 42.521977 34.787293 C 43.346179 34.787293 44.014134 35.459135 44.014134 36.283312 Z M 44.014134 36.283312 " transform="matrix(1.00002,0,0,-1.00005,51.399048,122.277314)"/>
<path style="fill-rule:nonzero;fill:rgb(100%,0%,0%);fill-opacity:1;stroke-width:0.3985;stroke-linecap:butt;stroke-linejoin:miter;stroke:rgb(100%,0%,0%);stroke-opacity:1;stroke-miterlimit:10;" d="M 58.189632 29.025863 C 58.189632 29.85004 57.51777 30.521882 56.693568 30.521882 C 55.869366 30.521882 55.197504 29.85004 55.197504 29.025863 C 55.197504 28.201685 55.869366 27.53375 56.693568 27.53375 C 57.51777 27.53375 58.189632 28.201685 58.189632 29.025863 Z M 58.189632 29.025863 " transform="matrix(1.00002,0,0,-1.00005,51.399048,122.277314)"/>
</g>
</svg>
