<?xml version="1.0" encoding="UTF-8"?>
<svg xmlns="http://www.w3.org/2000/svg" xmlns:xlink="http://www.w3.org/1999/xlink" width="271pt" height="202pt" viewBox="0 0 271 202" version="1.1">
<g id="surface1">
<path style="fill:none;stroke-width:0.3985;stroke-linecap:butt;stroke-linejoin:miter;stroke:rgb(0%,0%,0%);stroke-opacity:1;stroke-miterlimit:10;" d="M -53.105684 0.00066987 L 138.148628 0.00066987 " transform="matrix(1.0001,0,0,-1.00003,58.388338,143.535826)"/>
<path style=" stroke:none;fill-rule:nonzero;fill:rgb(0%,0%,0%);fill-opacity:1;" d="M 1.6875 143.535156 C 2.75 143.734375 4.480469 144.332031 5.675781 145.03125 L 5.675781 142.042969 C 4.480469 142.738281 2.75 143.335938 1.6875 143.535156 "/>
<path style=" stroke:none;fill-rule:nonzero;fill:rgb(0%,0%,0%);fill-opacity:1;" d="M 200.136719 143.535156 C 199.074219 143.335938 197.347656 142.738281 196.152344 142.042969 L 196.152344 145.03125 C 197.347656 144.332031 199.074219 143.734375 200.136719 143.535156 "/>
<path style="fill:none;stroke-width:0.3985;stroke-linecap:butt;stroke-linejoin:miter;stroke:rgb(0%,0%,0%);stroke-opacity:1;stroke-miterlimit:10;" d="M -0.00161929 -53.107112 L -0.00161929 138.148869 " transform="matrix(1.0001,0,0,-1.00003,58.388338,143.535826)"/>
<path style=" stroke:none;fill-rule:nonzero;fill:rgb(0%,0%,0%);fill-opacity:1;" d="M 58.386719 200.230469 C 58.585938 199.167969 59.183594 197.441406 59.882813 196.246094 L 56.894531 196.246094 C 57.589844 197.441406 58.1875 199.167969 58.386719 200.230469 "/>
<path style=" stroke:none;fill-rule:nonzero;fill:rgb(0%,0%,0%);fill-opacity:1;" d="M 58.386719 1.796875 C 58.1875 2.859375 57.589844 4.585938 56.894531 5.78125 L 59.882813 5.78125 C 59.183594 4.585938 58.585938 2.859375 58.386719 1.796875 "/>
<path style="fill:none;stroke-width:0.3985;stroke-linecap:butt;stroke-linejoin:miter;stroke:rgb(0%,0%,0%);stroke-opacity:1;stroke-dasharray:0.3985,1.99255;stroke-miterlimit:10;" d="M -14.172077 -28.346136 L 212.60212 -28.346136 M -14.172077 0.00066987 L 212.60212 0.00066987 M -14.172077 28.347476 L 212.60212 28.347476 M -14.172077 56.694282 L 212.60212 56.694282 M -14.172077 85.041087 L 212.60212 85.041087 M -14.172077 113.387893 L 212.60212 113.387893 M -0.00161929 -42.521492 L -0.00161929 127.559343 M 28.347108 -42.521492 L 28.347108 127.559343 M 56.69193 -42.521492 L 56.69193 127.559343 M 85.040658 -42.521492 L 85.040658 127.559343 M 113.38548 -42.521492 L 113.38548 127.559343 M 141.734207 -42.521492 L 141.734207 127.559343 M 170.079029 -42.521492 L 170.079029 127.559343 M 198.427757 -42.521492 L 198.427757 127.559343 " transform="matrix(1.0001,0,0,-1.00003,58.388338,143.535826)"/>
<path style="fill:none;stroke-width:0.79701;stroke-linecap:butt;stroke-linejoin:miter;stroke:rgb(0%,0%,0%);stroke-opacity:1;stroke-miterlimit:10;" d="M -0.00161929 56.694282 L 1.181856 55.46385 L 2.361426 54.151389 L 3.540995 52.764712 L 4.724471 51.315537 L 5.90404 49.815582 L 7.08361 48.280471 L 8.267085 46.721924 L 9.446655 45.147753 L 10.626224 43.577488 L 11.8097 42.015034 L 12.989269 40.479924 L 14.168839 38.979969 L 15.352314 37.530794 L 16.531884 36.144117 L 17.711453 34.82775 L 18.894929 33.601224 L 20.074498 32.472352 L 21.254068 31.452851 L 22.437543 30.554441 L 23.617113 29.792745 L 24.796682 29.179482 L 25.980158 28.726371 L 27.159727 28.445129 L 28.339297 28.347476 " transform="matrix(1.0001,0,0,-1.00003,58.388338,143.535826)"/>
<path style="fill:none;stroke-width:0.79701;stroke-linecap:butt;stroke-linejoin:miter;stroke:rgb(0%,0%,0%);stroke-opacity:1;stroke-miterlimit:10;" d="M 28.347108 28.347476 L 29.526678 28.441223 L 30.710153 28.722464 L 31.889723 29.175576 L 33.069292 29.788839 L 34.252768 30.550535 L 35.432337 31.445039 L 36.611907 32.46454 L 37.791476 33.593412 L 38.974952 34.819938 L 40.154521 36.136305 L 41.334091 37.522982 L 42.517566 38.972157 L 43.697136 40.472112 L 44.876705 42.007222 L 46.060181 43.565769 L 47.23975 45.136035 L 48.41932 46.710206 L 49.602795 48.272659 L 50.782365 49.807769 L 51.961934 51.303818 L 53.14541 52.752994 L 54.324979 54.143577 L 55.504549 55.459944 L 56.688024 56.686469 " transform="matrix(1.0001,0,0,-1.00003,58.388338,143.535826)"/>
<path style="fill:none;stroke-width:0.79701;stroke-linecap:butt;stroke-linejoin:miter;stroke:rgb(0%,0%,0%);stroke-opacity:1;stroke-miterlimit:10;" d="M 56.69193 56.694282 L 57.875406 57.920807 L 59.054975 59.233268 L 60.234545 60.623851 L 61.41802 62.073026 L 62.59759 63.572981 L 63.777159 65.108092 L 64.960634 66.666639 L 66.140204 68.24081 L 67.319774 69.811076 L 68.503249 71.369623 L 69.682819 72.908639 L 70.862388 74.404688 L 72.045863 75.857769 L 73.225433 77.244446 L 74.405003 78.556907 L 75.588478 79.783433 L 76.768047 80.916211 L 77.947617 81.935712 L 79.131092 82.830216 L 80.310662 83.591912 L 81.490232 84.205175 L 82.673707 84.658286 L 83.853276 84.943434 L 85.032846 85.041087 " transform="matrix(1.0001,0,0,-1.00003,58.388338,143.535826)"/>
<path style="fill:none;stroke-width:0.79701;stroke-linecap:butt;stroke-linejoin:miter;stroke:rgb(0%,0%,0%);stroke-opacity:1;stroke-miterlimit:10;" d="M 85.040658 85.041087 L 86.220227 84.853593 L 87.403703 84.29111 L 88.583272 83.380981 L 89.762842 82.158361 L 90.946317 80.63497 L 92.125887 78.842055 L 93.305456 76.806959 L 94.488932 74.545309 L 95.668501 72.092257 L 96.848071 69.46343 L 98.02764 66.690075 L 99.211116 63.787819 L 100.390685 60.791815 L 101.570255 57.725501 L 102.75373 54.604501 L 105.112869 48.315627 L 106.296345 45.19072 L 107.475914 42.124406 L 108.655484 39.128402 L 109.838959 36.226146 L 111.018529 33.448885 L 112.198098 30.816152 L 113.381574 28.359194 " transform="matrix(1.0001,0,0,-1.00003,58.388338,143.535826)"/>
<path style="fill:none;stroke-width:0.79701;stroke-linecap:butt;stroke-linejoin:miter;stroke:rgb(0%,0%,0%);stroke-opacity:1;stroke-miterlimit:10;" d="M 113.38548 28.347476 L 114.568955 25.863175 L 115.748524 23.132788 L 116.928094 20.187564 L 118.111569 17.066564 L 119.291139 13.797131 L 120.470708 10.41442 L 121.654184 6.945774 L 122.833753 3.422442 L 124.013323 -0.128233 L 125.196798 -3.675001 L 126.376368 -7.178802 L 127.555937 -10.620105 L 128.739413 -13.959849 L 129.918982 -17.166784 L 131.098552 -20.22138 L 132.282027 -23.080669 L 133.461597 -25.721215 L 134.641166 -28.115674 L 135.824642 -30.213267 L 137.004211 -32.006182 L 138.183781 -33.459264 L 139.367256 -34.529544 L 140.546826 -35.201399 L 141.726395 -35.431861 " transform="matrix(1.0001,0,0,-1.00003,58.388338,143.535826)"/>
<path style="fill:none;stroke-width:0.79701;stroke-linecap:butt;stroke-linejoin:miter;stroke:rgb(0%,0%,0%);stroke-opacity:1;stroke-miterlimit:10;" d="M 141.734207 -35.431861 L 142.913777 -35.420143 L 144.097252 -35.384987 L 145.276822 -35.322489 L 146.456391 -35.236554 L 147.639867 -35.127183 L 148.819436 -34.990468 L 149.999006 -34.830316 L 151.182481 -34.646728 L 152.362051 -34.439703 L 153.54162 -34.205335 L 154.72119 -33.943624 L 155.904665 -33.662383 L 157.084235 -33.353798 L 158.263804 -33.021777 L 159.44728 -32.666319 L 160.626849 -32.287424 L 161.806419 -31.881186 L 162.989894 -31.447605 L 164.169464 -30.994494 L 165.349033 -30.51404 L 166.532509 -30.010149 L 167.712078 -29.482821 L 168.891648 -28.92815 L 170.075123 -28.350042 " transform="matrix(1.0001,0,0,-1.00003,58.388338,143.535826)"/>
<path style="fill:none;stroke-width:0.79701;stroke-linecap:butt;stroke-linejoin:miter;stroke:rgb(0%,0%,0%);stroke-opacity:1;stroke-miterlimit:10;" d="M 170.079029 -28.346136 L 171.262504 -27.75631 L 173.621643 -26.576658 L 174.805119 -25.986832 L 175.984688 -25.3931 L 177.164258 -24.803274 L 178.347733 -24.213447 L 180.706872 -23.033795 L 181.890348 -22.443969 L 183.069917 -21.854143 L 184.249487 -21.260411 L 185.432962 -20.670585 L 187.792101 -19.490933 L 188.975577 -18.901107 L 190.155146 -18.311281 L 191.334716 -17.717549 L 192.518191 -17.127723 L 194.87733 -15.94807 L 196.060806 -15.358244 L 198.419945 -14.178592 " transform="matrix(1.0001,0,0,-1.00003,58.388338,143.535826)"/>
</g>
</svg>
